<?xml version="1.0" encoding="UTF-8" standalone="no"?>
<!DOCTYPE svg PUBLIC "-//W3C//DTD SVG 1.1//EN" "http://www.w3.org/Graphics/SVG/1.1/DTD/svg11.dtd">
<!-- Generated by Microsoft Visio, SVG Export 04_1_SystemSequence_CreateReservation.svg Page-1 -->
<svg xmlns="http://www.w3.org/2000/svg" xmlns:xlink="http://www.w3.org/1999/xlink" xmlns:ev="http://www.w3.org/2001/xml-events"
		xmlns:v="http://schemas.microsoft.com/visio/2003/SVGExtensions/" width="11.6929in" height="8.26772in"
		viewBox="0 0 841.89 595.276" xml:space="preserve" color-interpolation-filters="sRGB" class="st9">
	<v:documentProperties v:langID="1033" v:metric="true" v:viewMarkup="false">
		<v:userDefs>
			<v:ud v:nameU="msvNoAutoConnect" v:prompt="" v:val="VT0(1):26"/>
		</v:userDefs>
	</v:documentProperties>

	<style type="text/css">
	<![CDATA[
		.st1 {fill:#ffffff;stroke:#000000;stroke-width:1}
		.st2 {stroke:#000000;stroke-dasharray:3.5,2.5;stroke-linecap:round;stroke-linejoin:round;stroke-width:0.5}
		.st3 {fill:#000000;font-family:Segoe UI;font-size:1.00001em;font-weight:bold}
		.st4 {font-size:1em}
		.st5 {marker-end:url(#mrkr4-48);stroke:#000000;stroke-linecap:round;stroke-linejoin:round;stroke-width:0.5}
		.st6 {fill:#000000;fill-opacity:1;stroke:#000000;stroke-opacity:1;stroke-width:0.13368983957219}
		.st7 {fill:#ffffff;stroke:none;stroke-linecap:butt;stroke-width:7.2}
		.st8 {fill:#000000;font-family:Segoe UI;font-size:0.666664em}
		.st9 {fill:none;fill-rule:evenodd;font-size:12px;overflow:visible;stroke-linecap:square;stroke-miterlimit:3}
	]]>
	</style>

	<defs id="Markers">
		<g id="lend4">
			<path d="M 2 1 L 0 0 L 2 -1 L 2 1 " style="stroke:none"/>
		</g>
		<marker id="mrkr4-48" class="st6" v:arrowType="4" v:arrowSize="3" v:setback="14.96" refX="-14.96" orient="auto"
				markerUnits="strokeWidth" overflow="visible">
			<use xlink:href="#lend4" transform="scale(-7.48,-7.48) "/>
		</marker>
	</defs>
	<g v:mID="6" v:index="1" v:groupContext="foregroundPage">
		<v:userDefs>
			<v:ud v:nameU="visNavType" v:val="VT0(1):26"/>
			<v:ud v:nameU="msvThemeOrder" v:val="VT0(0):26"/>
		</v:userDefs>
		<title>Page-1</title>
		<v:pageProperties v:drawingScale="0.0393701" v:pageScale="0.0393701" v:drawingUnits="24" v:shadowOffsetX="8.50394"
				v:shadowOffsetY="-8.50394"/>
		<v:layer v:name="Connector" v:index="0"/>
		<g id="group38-1" transform="translate(69.0236,-517.92)" v:mID="38" v:groupContext="group">
			<v:userDefs>
				<v:ud v:nameU="visVersion" v:prompt="" v:val="VT0(15):26"/>
				<v:ud v:nameU="ShowActor" v:prompt="" v:val="VT0(1):5"/>
				<v:ud v:nameU="ShowDestruction" v:prompt="" v:val="VT0(0):5"/>
				<v:ud v:nameU="visNavOrder" v:val="VT0(1000):26"/>
			</v:userDefs>
			<title>Actor lifeline</title>
			<desc>&#60;&#60;user&#62;&#62; Customer</desc>
			<g id="shape39-2" v:mID="39" v:groupContext="shape" transform="translate(30.4724,0)">
				<title>Sheet.39</title>
				<rect x="0" y="569.764" width="51.0236" height="25.5118" class="st1"/>
			</g>
			<g id="shape40-4" v:mID="40" v:groupContext="shape" transform="translate(47.4803,-29.0551)">
				<title>Sheet.40</title>
				<path d="M3.4 595.28 L3.4 578.27 L3.4 585.07 L0 585.07 L0 571.46 L1.7 569.76 L15.31 569.76 L17.01 571.46 L17.01 585.07
							 L13.61 585.07 L13.61 578.27 L13.61 595.28 L8.5 595.28 L8.5 581.67 L8.5 595.28 L3.4 595.28 ZM11.91 564.66
							 A3.40157 3.40157 -180 1 0 5.1 564.66 A3.40157 3.40157 -180 1 0 11.91 564.66 Z" class="st1"/>
			</g>
			<g id="shape41-6" v:mID="41" v:groupContext="shape" transform="translate(37.3228,514.275)">
				<title>Sheet.41</title>
			</g>
			<g id="shape42-8" v:mID="42" v:groupContext="shape" transform="translate(651.26,595.276) rotate(90)">
				<title>Sheet.42</title>
				<path d="M0 595.28 L496.66 595.28" class="st2"/>
			</g>
			<g id="shape38-11" v:mID="38" v:groupContext="groupContent">
				<v:textBlock v:margins="rect(4,4,4,4)" v:tabSpace="42.5197"/>
				<v:textRect cx="55.9843" cy="582.52" width="111.97" height="25.5118"/>
				<rect x="0" y="569.764" width="111.969" height="25.5118" class="st1"/>
				<text x="27.11" y="578.92" class="st3" v:langID="1033"><v:paragraph v:horizAlign="1"/><v:tabList/>&#60;&#60;user&#62;&#62;<v:newlineChar/><tspan
							x="28.84" dy="1.2em" class="st4" v:langID="1029">Customer</tspan></text>			</g>
		</g>
		<g id="group43-15" transform="translate(266.032,-517.92)" v:mID="43" v:groupContext="group">
			<v:userDefs>
				<v:ud v:nameU="visVersion" v:prompt="" v:val="VT0(15):26"/>
				<v:ud v:nameU="ShowActor" v:prompt="" v:val="VT0(0):5"/>
				<v:ud v:nameU="ShowDestruction" v:prompt="" v:val="VT0(0):5"/>
				<v:ud v:nameU="visNavOrder" v:val="VT0(2000):26"/>
			</v:userDefs>
			<title>Object lifeline</title>
			<desc>&#60;&#60;system&#62;&#62; System</desc>
			<g id="shape44-16" v:mID="44" v:groupContext="shape" transform="translate(30.4724,0)">
				<title>Sheet.44</title>
				<rect x="0" y="569.764" width="51.0236" height="25.5118" class="st1"/>
			</g>
			<g id="shape45-18" v:mID="45" v:groupContext="shape" transform="translate(47.4803,-29.0551)">
				<title>Sheet.45</title>
				<path d="M8.5 595.28 a0 0 0 1 1 0 0 a0 0 0 1 1 0 0 Z" class="st1"/>
			</g>
			<g id="shape46-20" v:mID="46" v:groupContext="shape" transform="translate(37.3228,514.275)">
				<title>Sheet.46</title>
			</g>
			<g id="shape47-22" v:mID="47" v:groupContext="shape" transform="translate(651.26,595.276) rotate(90)">
				<title>Sheet.47</title>
				<path d="M0 595.28 L496.66 595.28" class="st2"/>
			</g>
			<g id="shape43-25" v:mID="43" v:groupContext="groupContent">
				<v:textBlock v:margins="rect(4,4,4,4)" v:tabSpace="42.5197"/>
				<v:textRect cx="55.9843" cy="582.52" width="111.97" height="25.5118"/>
				<rect x="0" y="569.764" width="111.969" height="25.5118" class="st1"/>
				<text x="19.43" y="578.92" class="st3" v:langID="1033"><v:paragraph v:horizAlign="1"/><v:tabList/>&#60;&#60;system&#62;&#62;<v:newlineChar/><tspan
							x="35.68" dy="1.2em" class="st4">System</tspan></text>			</g>
		</g>
		<g id="group145-29" transform="translate(455.953,-517.92)" v:mID="145" v:groupContext="group">
			<v:userDefs>
				<v:ud v:nameU="visVersion" v:prompt="" v:val="VT0(15):26"/>
				<v:ud v:nameU="ShowActor" v:prompt="" v:val="VT0(1):5"/>
				<v:ud v:nameU="ShowDestruction" v:prompt="" v:val="VT0(0):5"/>
				<v:ud v:nameU="visNavOrder" v:val="VT0(13500):26"/>
			</v:userDefs>
			<title>Actor lifeline.145</title>
			<desc>&#60;&#60;user&#62;&#62; OfficeStaff</desc>
			<g id="shape146-30" v:mID="146" v:groupContext="shape" transform="translate(30.4724,0)">
				<title>Sheet.146</title>
				<rect x="0" y="569.764" width="51.0236" height="25.5118" class="st1"/>
			</g>
			<g id="shape147-32" v:mID="147" v:groupContext="shape" transform="translate(47.4803,-29.0551)">
				<title>Sheet.147</title>
				<path d="M3.4 595.28 L3.4 578.27 L3.4 585.07 L0 585.07 L0 571.46 L1.7 569.76 L15.31 569.76 L17.01 571.46 L17.01 585.07
							 L13.61 585.07 L13.61 578.27 L13.61 595.28 L8.5 595.28 L8.5 581.67 L8.5 595.28 L3.4 595.28 ZM11.91 564.66
							 A3.40157 3.40157 -180 1 0 5.1 564.66 A3.40157 3.40157 -180 1 0 11.91 564.66 Z" class="st1"/>
			</g>
			<g id="shape148-34" v:mID="148" v:groupContext="shape" transform="translate(37.3228,514.275)">
				<title>Sheet.148</title>
			</g>
			<g id="shape149-36" v:mID="149" v:groupContext="shape" transform="translate(651.26,595.276) rotate(90)">
				<title>Sheet.149</title>
				<path d="M0 595.28 L496.66 595.28" class="st2"/>
			</g>
			<g id="shape145-39" v:mID="145" v:groupContext="groupContent">
				<v:textBlock v:margins="rect(4,4,4,4)" v:tabSpace="42.5197"/>
				<v:textRect cx="55.9843" cy="582.52" width="111.97" height="25.5118"/>
				<rect x="0" y="569.764" width="111.969" height="25.5118" class="st1"/>
				<text x="27.11" y="578.92" class="st3" v:langID="1033"><v:paragraph v:horizAlign="1"/><v:tabList/>&#60;&#60;user&#62;&#62;<v:newlineChar/><tspan
							x="25.48" dy="1.2em" class="st4" v:langID="1029">Office</tspan>Staff</text>			</g>
		</g>
		<g id="shape151-43" v:mID="151" v:groupContext="shape" v:layerMember="0" transform="translate(125.008,-476.817)">
			<title>Message.21</title>
			<desc>1: Vytvořit rezervaci</desc>
			<v:userDefs>
				<v:ud v:nameU="IsReturn" v:prompt="" v:val="VT0(0):5"/>
				<v:ud v:nameU="IsAsync" v:prompt="" v:val="VT0(0):26"/>
				<v:ud v:nameU="IsSelfMessage" v:prompt="" v:val="VT0(0):5"/>
				<v:ud v:nameU="visVersion" v:prompt="" v:val="VT0(15):26"/>
				<v:ud v:nameU="visNavOrder" v:val="VT0(14500):26"/>
			</v:userDefs>
			<v:textBlock v:margins="rect(4,4,4,4)" v:tabSpace="42.5197"/>
			<v:textRect cx="98.5039" cy="588.189" width="79.21" height="17.6036"/>
			<path d="M0 588.19 L189.53 588.19" class="st5"/>
			<rect v:rectContext="textBkgnd" x="63.9983" y="583.389" width="69.0114" height="9.59985" class="st7"/>
			<text x="64" y="590.59" class="st8" v:langID="1029"><v:paragraph v:horizAlign="1"/><v:tabList/>1: Vytvořit rezervaci</text>		</g>
	</g>
</svg>
