<?xml version="1.0" encoding="UTF-8" standalone="no"?>
<!DOCTYPE svg PUBLIC "-//W3C//DTD SVG 1.1//EN" "http://www.w3.org/Graphics/SVG/1.1/DTD/svg11.dtd">
<!-- Generated by Microsoft Visio, SVG Export 10_1_StateDiagram.svg Page-1 -->
<svg xmlns="http://www.w3.org/2000/svg" xmlns:xlink="http://www.w3.org/1999/xlink" xmlns:ev="http://www.w3.org/2001/xml-events"
		xmlns:v="http://schemas.microsoft.com/visio/2003/SVGExtensions/" width="8.26772in" height="11.6929in"
		viewBox="0 0 595.276 841.89" xml:space="preserve" color-interpolation-filters="sRGB" class="st20">
	<v:documentProperties v:langID="1033" v:metric="true" v:viewMarkup="false">
		<v:userDefs>
			<v:ud v:nameU="msvNoAutoConnect" v:prompt="" v:val="VT0(0):26"/>
		</v:userDefs>
	</v:documentProperties>

	<style type="text/css">
	<![CDATA[
		.st1 {marker-end:url(#mrkr4-6);stroke:#5592c9;stroke-linecap:round;stroke-linejoin:round;stroke-width:0.5}
		.st2 {fill:#5592c9;fill-opacity:1;stroke:#5592c9;stroke-opacity:1;stroke-width:0.16556291390728}
		.st3 {fill:#ffffff;stroke:none;stroke-linecap:butt;stroke-width:7.2}
		.st4 {fill:#41719d;font-family:Calibri;font-size:0.666664em}
		.st5 {fill:#73ae42;stroke:#ffffff;stroke-linecap:round;stroke-linejoin:round;stroke-width:0.5;visibility:hidden}
		.st6 {fill:#ffffff;stroke:#73ae42;stroke-linecap:round;stroke-linejoin:round;stroke-width:0.5}
		.st7 {fill:#73ae42}
		.st8 {stroke:#73ae42;stroke-linecap:round;stroke-linejoin:round;stroke-width:0.5}
		.st9 {fill:#ffffff;font-family:Calibri;font-size:1.00001em;font-weight:bold}
		.st10 {fill:#73ae42;stroke:#ffffff;stroke-linecap:round;stroke-linejoin:round;stroke-width:0.5}
		.st11 {fill:#73ae42;stroke:#73ae42;stroke-linecap:round;stroke-linejoin:round;stroke-width:0.5}
		.st12 {stroke:#5592c9;stroke-linecap:round;stroke-linejoin:round;stroke-width:0.5}
		.st13 {fill:#41719d;font-family:Calibri;font-size:0.75em}
		.st14 {font-size:1em}
		.st15 {fill:#5b9bd5;stroke:#5b9bd5;stroke-linecap:round;stroke-linejoin:round;stroke-width:0.5}
		.st16 {fill:#5b9bd5;stroke:#ffffff;stroke-linecap:round;stroke-linejoin:round;stroke-width:0.5}
		.st17 {fill:none;stroke:none;stroke-linecap:round;stroke-linejoin:round;stroke-width:0.5}
		.st18 {fill:#5b9bd5;font-family:Calibri;font-size:0.75em}
		.st19 {marker-start:url(#mrkr4-195);stroke:#5592c9;stroke-linecap:round;stroke-linejoin:round;stroke-width:0.5}
		.st20 {fill:none;fill-rule:evenodd;font-size:12px;overflow:visible;stroke-linecap:square;stroke-miterlimit:3}
	]]>
	</style>

	<defs id="Markers">
		<g id="lend4">
			<path d="M 2 1 L 0 0 L 2 -1 L 2 1 " style="stroke:none"/>
		</g>
		<marker id="mrkr4-6" class="st2" v:arrowType="4" v:arrowSize="2" v:setback="12.08" refX="-12.08" orient="auto"
				markerUnits="strokeWidth" overflow="visible">
			<use xlink:href="#lend4" transform="scale(-6.04,-6.04) "/>
		</marker>
		<marker id="mrkr4-195" class="st2" v:arrowType="4" v:arrowSize="2" v:setback="11.36" refX="11.36" orient="auto"
				markerUnits="strokeWidth" overflow="visible">
			<use xlink:href="#lend4" transform="scale(6.04) "/>
		</marker>
	</defs>
	<g v:mID="0" v:index="1" v:groupContext="foregroundPage">
		<v:userDefs>
			<v:ud v:nameU="msvThemeOrder" v:val="VT0(0):26"/>
		</v:userDefs>
		<title>Page-1</title>
		<v:pageProperties v:drawingScale="0.0393701" v:pageScale="0.0393701" v:drawingUnits="24" v:shadowOffsetX="8.50394"
				v:shadowOffsetY="-8.50394"/>
		<v:layer v:name="Connector" v:index="0"/>
		<g id="shape113-1" v:mID="113" v:groupContext="shape" v:layerMember="0" transform="translate(192.969,-396.85)">
			<title>Dynamic connector.113</title>
			<desc>Personál</desc>
			<v:textBlock v:margins="rect(4,4,4,4)" v:tabSpace="42.5197"/>
			<v:textRect cx="0.283458" cy="830.825" width="40" height="17.6036"/>
			<path d="M0 841.89 L0 669.47 L152.99 669.47 L152.99 674.55" class="st1"/>
			<rect v:rectContext="textBkgnd" x="-13.7771" y="826.025" width="28.1209" height="9.59985" class="st3"/>
			<text x="-13.78" y="833.23" class="st4" v:langID="1029"><v:paragraph v:horizAlign="1"/><v:tabList/>Personál</text>		</g>
		<g id="group44-9" transform="translate(266.276,-139.448)" v:mID="44" v:groupContext="group">
			<v:userDefs>
				<v:ud v:nameU="visVersion" v:prompt="" v:val="VT0(15):26"/>
				<v:ud v:nameU="msvStructureType" v:prompt="" v:val="VT4(Container)"/>
				<v:ud v:nameU="msvSDContainerMargin" v:prompt="" v:val="VT0(0.11811023622047):24"/>
				<v:ud v:nameU="msvSDContainerResize" v:prompt="" v:val="VT0(1):26"/>
				<v:ud v:nameU="msvSDHeadingStyle" v:prompt="" v:val="VT0(1):26"/>
				<v:ud v:nameU="msvSDHeadingStyleCount" v:prompt="" v:val="VT0(1):26"/>
			</v:userDefs>
			<title>Composite state</title>
			<g id="shape44-10" v:mID="44" v:groupContext="groupContent">
				<rect x="0" y="471.926" width="220.858" height="369.964" rx="25.5118" ry="25.5118" class="st5"/>
			</g>
			<g id="group45-12" transform="translate(0,-347.56)" v:mID="45" v:groupContext="group">
				<v:userDefs>
					<v:ud v:nameU="UmlRole" v:prompt="" v:val="VT4(Title)"/>
					<v:ud v:nameU="msvStructureType" v:prompt="" v:val="VT4(Heading)"/>
					<v:ud v:nameU="msvSDContainerHeadingEdge" v:prompt="" v:val="VT4(Bottom)"/>
				</v:userDefs>
				<title>Sheet.45</title>
				<desc>ReservationView</desc>
				<g id="shape46-13" v:mID="46" v:groupContext="shape" transform="translate(0,347.56)">
					<title>Sheet.46</title>
					<v:userDefs>
						<v:ud v:nameU="UmlRole" v:prompt="" v:val="VT4(Body)"/>
					</v:userDefs>
					<path d="M25.51 841.89 L195.35 841.89 A25.5118 25.5118 -180 0 0 220.86 816.38 L220.86 519.84 A25.5118 25.5118
								 -180 0 0 195.35 494.33 L25.51 494.33 A25.5118 25.5118 -180 0 0 -0 519.84 L0 816.38 A25.5118 25.5118
								 -180 0 0 25.51 841.89 Z" class="st6"/>
				</g>
				<g id="shape45-15" v:mID="45" v:groupContext="groupContent">
					<v:textBlock v:margins="rect(4,4,4,4)" v:tabSpace="42.5197"/>
					<v:textRect cx="110.429" cy="830.688" width="220.86" height="22.4037"/>
					<path d="M110.43 841.89 L11.2 841.89 A11.2019 11.2019 0 0 1 -0 830.69 L0 830.69 A11.2019 11.2019 0 0 1 11.2 819.49
								 L110.43 819.49 L110.43 841.89 L209.66 841.89 A11.2019 11.2019 -180 0 0 220.86 830.69 L220.86 830.69
								 A11.2019 11.2019 -180 0 0 209.66 819.49 L110.43 819.49 L110.43 841.89 Z" class="st7"/>
					<path d="M110.43 841.89 L11.2 841.89 A11.2019 11.2019 0 0 1 -0 830.69 L0 830.69 A11.2019 11.2019 0 0 1 11.2 819.49
								 L110.43 819.49M110.43 841.89 L209.66 841.89 A11.2019 11.2019 -180 0 0 220.86 830.69 L220.86 830.69
								 A11.2019 11.2019 -180 0 0 209.66 819.49 L110.43 819.49" class="st8"/>
					<text x="68.17" y="834.29" class="st9" v:langID="1033"><v:paragraph v:horizAlign="1"/><v:tabList/>ReservationView</text>				</g>
			</g>
		</g>
		<g id="group4-19" transform="translate(311.508,-48.7396)" v:mID="4" v:groupContext="group">
			<v:userDefs>
				<v:ud v:nameU="visVersion" v:prompt="" v:val="VT0(15):26"/>
			</v:userDefs>
			<title>State</title>
			<g id="shape4-20" v:mID="4" v:groupContext="groupContent">
				<rect x="0" y="797.086" width="130.394" height="44.8037" rx="8.50394" ry="8.50394" class="st10"/>
			</g>
			<g id="shape5-22" v:mID="5" v:groupContext="shape" transform="translate(0,-22.4)">
				<title>Sheet.5</title>
				<desc>CustomerView</desc>
				<v:userDefs>
					<v:ud v:nameU="UmlRole" v:prompt="" v:val="VT4(Title)"/>
				</v:userDefs>
				<v:textBlock v:margins="rect(4,4,4,4)" v:tabSpace="42.5197"/>
				<v:textRect cx="65.1969" cy="830.688" width="130.4" height="22.4037"/>
				<path d="M8.5 841.89 L121.89 841.89 A8.50394 8.50394 -180 0 0 130.39 833.39 L130.39 827.99 A8.50394 8.50394 -180
							 0 0 121.89 819.49 L8.5 819.49 A8.50394 8.50394 -180 0 0 0 827.99 L0 833.39 A8.50394 8.50394 -180 0 0
							 8.5 841.89 Z" class="st11"/>
				<text x="28.55" y="834.29" class="st9" v:langID="1033"><v:paragraph v:horizAlign="1"/><v:tabList/>CustomerView</text>			</g>
			<g id="shape6-25" v:mID="6" v:groupContext="shape">
				<title>Sheet.6</title>
				<v:userDefs>
					<v:ud v:nameU="UmlRole" v:prompt="" v:val="VT4(Body)"/>
				</v:userDefs>
				<path d="M8.5 841.89 L121.89 841.89 A8.50394 8.50394 -180 0 0 130.39 833.39 L130.39 827.99 A8.50394 8.50394 -180
							 0 0 121.89 819.49 L8.5 819.49 A8.50394 8.50394 -180 0 0 0 827.99 L0 833.39 A8.50394 8.50394 -180 0 0
							 8.5 841.89 Z" class="st6"/>
			</g>
		</g>
		<g id="group7-27" transform="translate(311.072,-513.346)" v:mID="7" v:groupContext="group">
			<v:userDefs>
				<v:ud v:nameU="visVersion" v:prompt="" v:val="VT0(15):26"/>
			</v:userDefs>
			<title>State.7</title>
			<g id="shape7-28" v:mID="7" v:groupContext="groupContent">
				<rect x="0" y="797.086" width="130.394" height="44.8037" rx="8.50394" ry="8.50394" class="st10"/>
			</g>
			<g id="shape8-30" v:mID="8" v:groupContext="shape" transform="translate(0,-22.4)">
				<title>Sheet.8</title>
				<desc>RestaurantView</desc>
				<v:userDefs>
					<v:ud v:nameU="UmlRole" v:prompt="" v:val="VT4(Title)"/>
				</v:userDefs>
				<v:textBlock v:margins="rect(4,4,4,4)" v:tabSpace="42.5197"/>
				<v:textRect cx="65.1969" cy="830.688" width="130.4" height="22.4037"/>
				<path d="M8.5 841.89 L121.89 841.89 A8.50394 8.50394 -180 0 0 130.39 833.39 L130.39 827.99 A8.50394 8.50394 -180
							 0 0 121.89 819.49 L8.5 819.49 A8.50394 8.50394 -180 0 0 0 827.99 L0 833.39 A8.50394 8.50394 -180 0 0
							 8.5 841.89 Z" class="st11"/>
				<text x="25.24" y="834.29" class="st9" v:langID="1033"><v:paragraph v:horizAlign="1"/><v:tabList/>RestaurantView</text>			</g>
			<g id="shape9-33" v:mID="9" v:groupContext="shape">
				<title>Sheet.9</title>
				<v:userDefs>
					<v:ud v:nameU="UmlRole" v:prompt="" v:val="VT4(Body)"/>
				</v:userDefs>
				<path d="M8.5 841.89 L121.89 841.89 A8.50394 8.50394 -180 0 0 130.39 833.39 L130.39 827.99 A8.50394 8.50394 -180
							 0 0 121.89 819.49 L8.5 819.49 A8.50394 8.50394 -180 0 0 0 827.99 L0 833.39 A8.50394 8.50394 -180 0 0
							 8.5 841.89 Z" class="st6"/>
			</g>
		</g>
		<g id="shape27-35" v:mID="27" v:groupContext="shape" v:layerMember="0" transform="translate(311.072,-535.748)">
			<title>Dynamic connector</title>
			<desc>Zobrazit rezervace</desc>
			<v:textBlock v:margins="rect(4,4,4,4)" v:tabSpace="42.5197"/>
			<v:textRect cx="-74.3786" cy="931.619" width="77.3" height="18.8036" transform="rotate(-90)"/>
			<path d="M0 841.89 L-73.95 841.89 L-73.95 1053.21" class="st12"/>
			<rect v:rectContext="textBkgnd" x="-965.246" y="-79.7784" width="67.2539" height="10.7998" transform="rotate(-90)"
					class="st3"/>
			<text x="-965.25" y="-71.68" transform="rotate(-90)" class="st13" v:langID="1033"><v:paragraph v:horizAlign="1"/><v:tabList/>Zobrazit rezervace</text>		</g>
		<g id="group47-40" transform="translate(324.216,-376.454)" v:mID="47" v:groupContext="group">
			<v:userDefs>
				<v:ud v:nameU="visVersion" v:prompt="" v:val="VT0(15):26"/>
			</v:userDefs>
			<title>State.47</title>
			<g id="shape47-41" v:mID="47" v:groupContext="groupContent">
				<rect x="0" y="797.086" width="110.403" height="44.8037" rx="8.50394" ry="8.50394" class="st10"/>
			</g>
			<g id="shape48-43" v:mID="48" v:groupContext="shape" transform="translate(0,-22.4)">
				<title>Sheet.48</title>
				<desc>Potvrdit rezervaci</desc>
				<v:userDefs>
					<v:ud v:nameU="UmlRole" v:prompt="" v:val="VT4(Title)"/>
				</v:userDefs>
				<v:textBlock v:margins="rect(4,4,4,4)" v:tabSpace="42.5197"/>
				<v:textRect cx="55.2015" cy="830.688" width="110.41" height="22.4037"/>
				<path d="M8.5 841.89 L101.9 841.89 A8.50394 8.50394 -180 0 0 110.4 833.39 L110.4 827.99 A8.50394 8.50394 -180 0 0
							 101.9 819.49 L8.5 819.49 A8.50394 8.50394 -180 0 0 0 827.99 L0 833.39 A8.50394 8.50394 -180 0 0 8.5
							 841.89 Z" class="st11"/>
				<text x="11.12" y="834.29" class="st9" v:langID="1033"><v:paragraph v:horizAlign="1"/><v:tabList/>Potvrdit rezervaci</text>			</g>
			<g id="shape49-46" v:mID="49" v:groupContext="shape">
				<title>Sheet.49</title>
				<v:userDefs>
					<v:ud v:nameU="UmlRole" v:prompt="" v:val="VT4(Body)"/>
				</v:userDefs>
				<path d="M8.5 841.89 L101.9 841.89 A8.50394 8.50394 -180 0 0 110.4 833.39 L110.4 827.99 A8.50394 8.50394 -180 0 0
							 101.9 819.49 L8.5 819.49 A8.50394 8.50394 -180 0 0 0 827.99 L0 833.39 A8.50394 8.50394 -180 0 0 8.5
							 841.89 Z" class="st6"/>
			</g>
		</g>
		<g id="group50-48" transform="translate(324.216,-320.866)" v:mID="50" v:groupContext="group">
			<v:userDefs>
				<v:ud v:nameU="visVersion" v:prompt="" v:val="VT0(15):26"/>
			</v:userDefs>
			<title>State.50</title>
			<g id="shape50-49" v:mID="50" v:groupContext="groupContent">
				<rect x="0" y="797.086" width="110.403" height="44.8037" rx="8.50394" ry="8.50394" class="st10"/>
			</g>
			<g id="shape51-51" v:mID="51" v:groupContext="shape" transform="translate(0,-22.4)">
				<title>Sheet.51</title>
				<desc>Zamítnout rezervaci</desc>
				<v:userDefs>
					<v:ud v:nameU="UmlRole" v:prompt="" v:val="VT4(Title)"/>
				</v:userDefs>
				<v:textBlock v:margins="rect(4,4,4,4)" v:tabSpace="42.5197"/>
				<v:textRect cx="55.2015" cy="830.688" width="110.41" height="22.4037"/>
				<path d="M8.5 841.89 L101.9 841.89 A8.50394 8.50394 -180 0 0 110.4 833.39 L110.4 827.99 A8.50394 8.50394 -180 0 0
							 101.9 819.49 L8.5 819.49 A8.50394 8.50394 -180 0 0 0 827.99 L0 833.39 A8.50394 8.50394 -180 0 0 8.5
							 841.89 Z" class="st11"/>
				<text x="5.36" y="834.29" class="st9" v:langID="1033"><v:paragraph v:horizAlign="1"/><v:tabList/>Zam<tspan
							class="st14" v:langID="1029">ítnout rezervaci</tspan></text>			</g>
			<g id="shape52-55" v:mID="52" v:groupContext="shape">
				<title>Sheet.52</title>
				<v:userDefs>
					<v:ud v:nameU="UmlRole" v:prompt="" v:val="VT4(Body)"/>
				</v:userDefs>
				<path d="M8.5 841.89 L101.9 841.89 A8.50394 8.50394 -180 0 0 110.4 833.39 L110.4 827.99 A8.50394 8.50394 -180 0 0
							 101.9 819.49 L8.5 819.49 A8.50394 8.50394 -180 0 0 0 827.99 L0 833.39 A8.50394 8.50394 -180 0 0 8.5
							 841.89 Z" class="st6"/>
			</g>
		</g>
		<g id="group53-57" transform="translate(324.216,-265.278)" v:mID="53" v:groupContext="group">
			<v:userDefs>
				<v:ud v:nameU="visVersion" v:prompt="" v:val="VT0(15):26"/>
			</v:userDefs>
			<title>State.53</title>
			<g id="shape53-58" v:mID="53" v:groupContext="groupContent">
				<rect x="0" y="797.086" width="110.403" height="44.8037" rx="8.50394" ry="8.50394" class="st10"/>
			</g>
			<g id="shape54-60" v:mID="54" v:groupContext="shape" transform="translate(0,-22.4)">
				<title>Sheet.54</title>
				<desc>Zrušit rezervaci</desc>
				<v:userDefs>
					<v:ud v:nameU="UmlRole" v:prompt="" v:val="VT4(Title)"/>
				</v:userDefs>
				<v:textBlock v:margins="rect(4,4,4,4)" v:tabSpace="42.5197"/>
				<v:textRect cx="55.2015" cy="830.688" width="110.41" height="22.4037"/>
				<path d="M8.5 841.89 L101.9 841.89 A8.50394 8.50394 -180 0 0 110.4 833.39 L110.4 827.99 A8.50394 8.50394 -180 0 0
							 101.9 819.49 L8.5 819.49 A8.50394 8.50394 -180 0 0 0 827.99 L0 833.39 A8.50394 8.50394 -180 0 0 8.5
							 841.89 Z" class="st11"/>
				<text x="17.2" y="834.29" class="st9" v:langID="1029"><v:paragraph v:horizAlign="1"/><v:tabList/>Zrušit rezervaci</text>			</g>
			<g id="shape55-63" v:mID="55" v:groupContext="shape">
				<title>Sheet.55</title>
				<v:userDefs>
					<v:ud v:nameU="UmlRole" v:prompt="" v:val="VT4(Body)"/>
				</v:userDefs>
				<path d="M8.5 841.89 L101.9 841.89 A8.50394 8.50394 -180 0 0 110.4 833.39 L110.4 827.99 A8.50394 8.50394 -180 0 0
							 101.9 819.49 L8.5 819.49 A8.50394 8.50394 -180 0 0 0 827.99 L0 833.39 A8.50394 8.50394 -180 0 0 8.5
							 841.89 Z" class="st6"/>
			</g>
		</g>
		<g id="shape59-65" v:mID="59" v:groupContext="shape" v:layerMember="0" transform="translate(434.619,-398.855)">
			<title>Dynamic connector.59</title>
			<path d="M0 841.89 L24.17 841.89 L24.17 916.31 L52.51 916.31" class="st12"/>
		</g>
		<g id="shape64-68" v:mID="64" v:groupContext="shape" v:layerMember="0" transform="translate(487.134,-324.43)">
			<title>Dynamic connector.64</title>
			<desc>Potvrzení/ Zamítnutí/ Zrušení</desc>
			<v:textBlock v:margins="rect(4,4,4,4)" v:tabSpace="42.5197"/>
			<v:textRect cx="35.8583" cy="801.706" width="44.31" height="36.8035"/>
			<path d="M0 841.89 L36 841.89 L36 630.57 L-39.63 630.57" class="st1"/>
			<rect v:rectContext="textBkgnd" x="18.6107" y="787.306" width="34.4954" height="28.7996" class="st3"/>
			<text x="19.01" y="794.51" class="st4" v:langID="1029"><v:paragraph v:horizAlign="1"/><v:tabList/>Potvrzení/<v:newlineChar/><tspan
						x="18.61" dy="1.2em" class="st14">Zamítnutí/<v:lf/></tspan><tspan x="23.92" dy="1.2em" class="st14">Zrušení</tspan></text>		</g>
		<g id="group67-77" transform="translate(324.216,-209.69)" v:mID="67" v:groupContext="group">
			<v:userDefs>
				<v:ud v:nameU="visVersion" v:prompt="" v:val="VT0(15):26"/>
			</v:userDefs>
			<title>State.67</title>
			<g id="shape67-78" v:mID="67" v:groupContext="groupContent">
				<rect x="0" y="797.086" width="110.403" height="44.8037" rx="8.50394" ry="8.50394" class="st10"/>
			</g>
			<g id="shape68-80" v:mID="68" v:groupContext="shape" transform="translate(0,-22.4)">
				<title>Sheet.68</title>
				<desc>Vytvořit rezervaci</desc>
				<v:userDefs>
					<v:ud v:nameU="UmlRole" v:prompt="" v:val="VT4(Title)"/>
				</v:userDefs>
				<v:textBlock v:margins="rect(4,4,4,4)" v:tabSpace="42.5197"/>
				<v:textRect cx="55.2015" cy="830.688" width="110.41" height="22.4037"/>
				<path d="M8.5 841.89 L101.9 841.89 A8.50394 8.50394 -180 0 0 110.4 833.39 L110.4 827.99 A8.50394 8.50394 -180 0 0
							 101.9 819.49 L8.5 819.49 A8.50394 8.50394 -180 0 0 0 827.99 L0 833.39 A8.50394 8.50394 -180 0 0 8.5
							 841.89 Z" class="st11"/>
				<text x="11.15" y="834.29" class="st9" v:langID="1029"><v:paragraph v:horizAlign="1"/><v:tabList/>Vytvořit rezervaci</text>			</g>
			<g id="shape69-83" v:mID="69" v:groupContext="shape">
				<title>Sheet.69</title>
				<v:userDefs>
					<v:ud v:nameU="UmlRole" v:prompt="" v:val="VT4(Body)"/>
				</v:userDefs>
				<path d="M8.5 841.89 L101.9 841.89 A8.50394 8.50394 -180 0 0 110.4 833.39 L110.4 827.99 A8.50394 8.50394 -180 0 0
							 101.9 819.49 L8.5 819.49 A8.50394 8.50394 -180 0 0 0 827.99 L0 833.39 A8.50394 8.50394 -180 0 0 8.5
							 841.89 Z" class="st6"/>
			</g>
		</g>
		<g id="group70-85" transform="translate(324.216,-154.102)" v:mID="70" v:groupContext="group">
			<v:userDefs>
				<v:ud v:nameU="visVersion" v:prompt="" v:val="VT0(15):26"/>
			</v:userDefs>
			<title>State.70</title>
			<g id="shape70-86" v:mID="70" v:groupContext="groupContent">
				<rect x="0" y="797.086" width="110.403" height="44.8037" rx="8.50394" ry="8.50394" class="st10"/>
			</g>
			<g id="shape71-88" v:mID="71" v:groupContext="shape" transform="translate(0,-22.4)">
				<title>Sheet.71</title>
				<desc>Stornovat rezervaci</desc>
				<v:userDefs>
					<v:ud v:nameU="UmlRole" v:prompt="" v:val="VT4(Title)"/>
				</v:userDefs>
				<v:textBlock v:margins="rect(4,4,4,4)" v:tabSpace="42.5197"/>
				<v:textRect cx="55.2015" cy="830.688" width="110.41" height="22.4037"/>
				<path d="M8.5 841.89 L101.9 841.89 A8.50394 8.50394 -180 0 0 110.4 833.39 L110.4 827.99 A8.50394 8.50394 -180 0 0
							 101.9 819.49 L8.5 819.49 A8.50394 8.50394 -180 0 0 0 827.99 L0 833.39 A8.50394 8.50394 -180 0 0 8.5
							 841.89 Z" class="st11"/>
				<text x="6.77" y="834.29" class="st9" v:langID="1029"><v:paragraph v:horizAlign="1"/><v:tabList/>Stornovat rezervaci</text>			</g>
			<g id="shape72-91" v:mID="72" v:groupContext="shape">
				<title>Sheet.72</title>
				<v:userDefs>
					<v:ud v:nameU="UmlRole" v:prompt="" v:val="VT4(Body)"/>
				</v:userDefs>
				<path d="M8.5 841.89 L101.9 841.89 A8.50394 8.50394 -180 0 0 110.4 833.39 L110.4 827.99 A8.50394 8.50394 -180 0 0
							 101.9 819.49 L8.5 819.49 A8.50394 8.50394 -180 0 0 0 827.99 L0 833.39 A8.50394 8.50394 -180 0 0 8.5
							 841.89 Z" class="st6"/>
			</g>
		</g>
		<g id="shape81-93" v:mID="81" v:groupContext="shape" v:layerMember="0" transform="translate(237.118,-332.294)">
			<title>Dynamic connector.81</title>
			<path d="M0 848.2 L0 849.75 L23.12 849.75" class="st1"/>
		</g>
		<g id="shape83-98" v:mID="83" v:groupContext="shape" v:layerMember="0" transform="translate(266.276,-324.43)">
			<title>Dynamic connector.83</title>
			<desc>Zamítnout</desc>
			<v:textBlock v:margins="rect(4,4,4,4)" v:tabSpace="42.5197"/>
			<v:textRect cx="32.4957" cy="823.328" width="43.61" height="17.6036"/>
			<path d="M0 841.89 L11.09 841.89 L11.09 823.05 L51.9 823.05" class="st1"/>
			<rect v:rectContext="textBkgnd" x="15.6016" y="818.528" width="33.7885" height="9.59985" class="st3"/>
			<text x="15.6" y="825.73" class="st4" v:langID="1029"><v:paragraph v:horizAlign="1"/><v:tabList/>Zamítnout</text>		</g>
		<g id="shape84-105" v:mID="84" v:groupContext="shape" v:layerMember="0" transform="translate(266.276,-324.43)">
			<title>Dynamic connector.84</title>
			<desc>Zrušit</desc>
			<v:textBlock v:margins="rect(4,4,4,4)" v:tabSpace="42.5197"/>
			<v:textRect cx="32.7791" cy="878.603" width="40" height="17.6036"/>
			<path d="M0 841.89 L11.09 841.89 L11.09 878.64 L51.9 878.64" class="st1"/>
			<rect v:rectContext="textBkgnd" x="23.5878" y="873.804" width="18.3826" height="9.59985" class="st3"/>
			<text x="23.59" y="881" class="st4" v:langID="1029"><v:paragraph v:horizAlign="1"/><v:tabList/>Zrušit</text>		</g>
		<g id="shape85-112" v:mID="85" v:groupContext="shape" v:layerMember="0" transform="translate(266.276,-324.43)">
			<title>Dynamic connector.85</title>
			<desc>Potvrdit</desc>
			<v:textBlock v:margins="rect(4,4,4,4)" v:tabSpace="42.5197"/>
			<v:textRect cx="31.9287" cy="767.769" width="40" height="17.6036"/>
			<path d="M0 841.89 L11.09 841.89 L11.09 767.46 L51.9 767.46" class="st1"/>
			<rect v:rectContext="textBkgnd" x="18.8526" y="762.969" width="26.1521" height="9.59985" class="st3"/>
			<text x="18.85" y="770.17" class="st4" v:langID="1029"><v:paragraph v:horizAlign="1"/><v:tabList/>Potvrdit</text>		</g>
		<g id="shape86-119" v:mID="86" v:groupContext="shape" v:layerMember="0" transform="translate(434.619,-343.267)">
			<title>Dynamic connector.86</title>
			<path d="M0 841.89 L24.17 841.89 L24.17 860.73 L52.51 860.73" class="st12"/>
		</g>
		<g id="shape87-122" v:mID="87" v:groupContext="shape" v:layerMember="0" transform="translate(434.619,-287.68)">
			<title>Dynamic connector.87</title>
			<path d="M0 841.89 L24.17 841.89 L24.17 805.14 L52.51 805.14" class="st12"/>
		</g>
		<g id="shape88-125" v:mID="88" v:groupContext="shape" v:layerMember="0" transform="translate(311.508,-71.1415)">
			<title>Dynamic connector.88</title>
			<path d="M0 841.89 L-73.26 841.89 L-73.26 705.55" class="st12"/>
		</g>
		<g id="shape89-128" v:mID="89" v:groupContext="shape" v:layerMember="0" transform="translate(515.48,-203.785)">
			<title>Dynamic connector.89</title>
			<desc>Vytvoření/ Storno</desc>
			<v:textBlock v:margins="rect(4,4,4,4)" v:tabSpace="42.5197"/>
			<v:textRect cx="-0.141728" cy="888.405" width="44.39" height="27.2035"/>
			<path d="M0 841.89 L0 965.74 L-67.54 965.74" class="st1"/>
			<rect v:rectContext="textBkgnd" x="-17.4267" y="878.805" width="34.5701" height="19.1997" class="st3"/>
			<text x="-17.43" y="886.01" class="st4" v:langID="1029"><v:paragraph v:horizAlign="1"/><v:tabList/>Vytvoření/<v:lf/><tspan
						x="-11.03" dy="1.2em" class="st14">Storno</tspan></text>		</g>
		<g id="shape90-136" v:mID="90" v:groupContext="shape" v:layerMember="0" transform="translate(238.252,-200.393)">
			<title>Dynamic connector.90</title>
			<path d="M0 834.8 L28.02 834.8" class="st12"/>
		</g>
		<g id="shape91-139" v:mID="91" v:groupContext="shape" v:layerMember="0" transform="translate(434.619,-232.092)">
			<title>Dynamic connector.91</title>
			<path d="M0 841.89 L29.84 841.89 L29.84 872.17" class="st12"/>
		</g>
		<g id="shape100-142" v:mID="100" v:groupContext="shape" v:layerMember="0" transform="translate(434.619,-176.504)">
			<title>Dynamic connector.100</title>
			<path d="M0 841.89 L29.9 841.89 L29.9 814.58 L52.51 814.58" class="st12"/>
		</g>
		<g id="shape101-145" v:mID="101" v:groupContext="shape" v:layerMember="0" transform="translate(487.134,-196.699)">
			<title>Dynamic connector.101</title>
			<path d="M0 834.8 L28.35 834.8" class="st12"/>
		</g>
		<g id="shape106-148" v:mID="106" v:groupContext="shape" v:layerMember="0" transform="translate(266.276,-207.48)">
			<title>Dynamic connector.106</title>
			<desc>Vytvořit</desc>
			<v:textBlock v:margins="rect(4,4,4,4)" v:tabSpace="42.5197"/>
			<v:textRect cx="32.7791" cy="816.929" width="40" height="17.6036"/>
			<path d="M0 841.89 L12.34 841.89 L12.34 817.28 L51.9 817.28" class="st1"/>
			<rect v:rectContext="textBkgnd" x="19.7909" y="812.129" width="25.9763" height="9.59985" class="st3"/>
			<text x="19.79" y="819.33" class="st4" v:langID="1029"><v:paragraph v:horizAlign="1"/><v:tabList/>Vytvořit</text>		</g>
		<g id="shape107-155" v:mID="107" v:groupContext="shape" v:layerMember="0" transform="translate(266.276,-207.48)">
			<title>Dynamic connector.107</title>
			<desc>Stornovat</desc>
			<v:textBlock v:margins="rect(4,4,4,4)" v:tabSpace="42.5197"/>
			<v:textRect cx="34.1965" cy="872.771" width="41.73" height="17.6036"/>
			<path d="M0 841.89 L12.37 841.89 L12.37 872.87 L51.9 872.87" class="st1"/>
			<rect v:rectContext="textBkgnd" x="18.2415" y="867.971" width="31.9101" height="9.59985" class="st3"/>
			<text x="18.24" y="875.17" class="st4" v:langID="1029"><v:paragraph v:horizAlign="1"/><v:tabList/>Stornovat</text>		</g>
		<g id="shape108-162" v:mID="108" v:groupContext="shape" transform="translate(101.835,-362.835)">
			<title>Initial state</title>
			<v:userDefs>
				<v:ud v:nameU="visVersion" v:prompt="" v:val="VT0(15):26"/>
			</v:userDefs>
			<ellipse cx="17.0079" cy="824.882" rx="17.0079" ry="17.0079" class="st15"/>
		</g>
		<g id="shape109-164" v:mID="109" v:groupContext="shape" transform="translate(175.961,-362.835)">
			<title>Choice</title>
			<v:userDefs>
				<v:ud v:nameU="visVersion" v:prompt="" v:val="VT0(15):26"/>
			</v:userDefs>
			<path d="M17.01 841.89 L34.02 824.88 L17.01 807.87 L0 824.88 L17.01 841.89 Z" class="st16"/>
		</g>
		<g id="shape110-166" v:mID="110" v:groupContext="shape" v:layerMember="0" transform="translate(135.85,-372.756)">
			<title>Dynamic connector.110</title>
			<path d="M0 834.8 L34.07 834.8" class="st1"/>
		</g>
		<g id="shape111-171" v:mID="111" v:groupContext="shape" v:layerMember="0" transform="translate(192.969,-362.835)">
			<title>Dynamic connector.111</title>
			<desc>Zákazník</desc>
			<v:textBlock v:margins="rect(4,4,4,4)" v:tabSpace="42.5197"/>
			<v:textRect cx="0.283458" cy="849.68" width="40" height="17.6036"/>
			<path d="M0 841.89 L0 1177.92 L183.74 1177.92 L183.74 1162.02" class="st1"/>
			<rect v:rectContext="textBkgnd" x="-13.6579" y="844.88" width="27.8828" height="9.59985" class="st3"/>
			<text x="-13.66" y="852.08" class="st4" v:langID="1029"><v:paragraph v:horizAlign="1"/><v:tabList/>Zákazník</text>		</g>
		<g id="shape151-178" v:mID="151" v:groupContext="shape" transform="translate(170.079,-562.677)">
			<title>Sheet.151</title>
			<desc>Zobrazit aktuální stav restaurace</desc>
			<v:textBlock v:margins="rect(4,4,4,4)" v:tabSpace="42.5197"/>
			<v:textRect cx="55.9843" cy="836.84" width="111.97" height="10.0989"/>
			<rect x="0" y="831.791" width="111.969" height="10.0989" class="st17"/>
			<text x="16.95" y="834.14" class="st18" v:langID="1029"><v:paragraph v:horizAlign="1"/><v:tabList/>Zobrazit aktuální stav <tspan
						x="36.52" dy="1.2em" class="st14">restaurace</tspan></text>		</g>
		<g id="group152-182" transform="translate(323.865,-433.701)" v:mID="152" v:groupContext="group">
			<v:userDefs>
				<v:ud v:nameU="visVersion" v:prompt="" v:val="VT0(15):26"/>
			</v:userDefs>
			<title>State.152</title>
			<g id="shape152-183" v:mID="152" v:groupContext="groupContent">
				<rect x="0" y="797.086" width="110.403" height="44.8037" rx="8.50394" ry="8.50394" class="st10"/>
			</g>
			<g id="shape153-185" v:mID="153" v:groupContext="shape" transform="translate(0,-22.4)">
				<title>Sheet.153</title>
				<desc>Editovat rezervaci</desc>
				<v:userDefs>
					<v:ud v:nameU="UmlRole" v:prompt="" v:val="VT4(Title)"/>
				</v:userDefs>
				<v:textBlock v:margins="rect(4,4,4,4)" v:tabSpace="42.5197"/>
				<v:textRect cx="55.2015" cy="830.688" width="110.41" height="22.4037"/>
				<path d="M8.5 841.89 L101.9 841.89 A8.50394 8.50394 -180 0 0 110.4 833.39 L110.4 827.99 A8.50394 8.50394 -180 0 0
							 101.9 819.49 L8.5 819.49 A8.50394 8.50394 -180 0 0 0 827.99 L0 833.39 A8.50394 8.50394 -180 0 0 8.5
							 841.89 Z" class="st11"/>
				<text x="10.56" y="834.29" class="st9" v:langID="1029"><v:paragraph v:horizAlign="1"/><v:tabList/>Editovat rezervaci</text>			</g>
			<g id="shape154-188" v:mID="154" v:groupContext="shape">
				<title>Sheet.154</title>
				<v:userDefs>
					<v:ud v:nameU="UmlRole" v:prompt="" v:val="VT4(Body)"/>
				</v:userDefs>
				<path d="M8.5 841.89 L101.9 841.89 A8.50394 8.50394 -180 0 0 110.4 833.39 L110.4 827.99 A8.50394 8.50394 -180 0 0
							 101.9 819.49 L8.5 819.49 A8.50394 8.50394 -180 0 0 0 827.99 L0 833.39 A8.50394 8.50394 -180 0 0 8.5
							 841.89 Z" class="st6"/>
			</g>
		</g>
		<g id="shape155-190" v:mID="155" v:groupContext="shape" v:layerMember="0" transform="translate(323.865,-456.103)">
			<title>Dynamic connector.155</title>
			<desc>Editovat</desc>
			<v:textBlock v:margins="rect(4,4,4,4)" v:tabSpace="42.5197"/>
			<v:textRect cx="-26.2269" cy="841.614" width="40" height="17.6036"/>
			<path d="M-5.68 841.89 L-6.04 841.89 L-46.49 841.89 L-46.49 973.56 L-57.59 973.56" class="st19"/>
			<rect v:rectContext="textBkgnd" x="-39.7112" y="836.815" width="26.9684" height="9.59985" class="st3"/>
			<text x="-39.71" y="844.01" class="st4" v:langID="1029"><v:paragraph v:horizAlign="1"/><v:tabList/>Editovat</text>		</g>
		<g id="shape156-198" v:mID="156" v:groupContext="shape" v:layerMember="0" transform="translate(434.268,-456.103)">
			<title>Dynamic connector.156</title>
			<path d="M0 841.89 L24.52 841.89 L24.52 973.56 L46.83 973.56" class="st1"/>
		</g>
	</g>
</svg>
