<?xml version="1.0" encoding="UTF-8" standalone="no"?>
<!DOCTYPE svg PUBLIC "-//W3C//DTD SVG 1.1//EN" "http://www.w3.org/Graphics/SVG/1.1/DTD/svg11.dtd">
<!-- Generated by Microsoft Visio, SVG Export 10_1_StateDiagram.svg Page-1 -->
<svg xmlns="http://www.w3.org/2000/svg" xmlns:xlink="http://www.w3.org/1999/xlink" xmlns:ev="http://www.w3.org/2001/xml-events"
		xmlns:v="http://schemas.microsoft.com/visio/2003/SVGExtensions/" width="11.6929in" height="8.26772in"
		viewBox="0 0 841.89 595.276" xml:space="preserve" color-interpolation-filters="sRGB" class="st21">
	<v:documentProperties v:langID="1033" v:metric="true" v:viewMarkup="false">
		<v:userDefs>
			<v:ud v:nameU="msvNoAutoConnect" v:prompt="" v:val="VT0(0):26"/>
		</v:userDefs>
	</v:documentProperties>

	<style type="text/css">
	<![CDATA[
		.st1 {marker-end:url(#mrkr4-6);stroke:#5592c9;stroke-linecap:round;stroke-linejoin:round;stroke-width:0.5}
		.st2 {fill:#5592c9;fill-opacity:1;stroke:#5592c9;stroke-opacity:1;stroke-width:0.16556291390728}
		.st3 {fill:#ffffff;stroke:none;stroke-linecap:butt;stroke-width:7.2}
		.st4 {fill:#41719d;font-family:Calibri;font-size:0.666664em}
		.st5 {fill:#73ae42;stroke:#ffffff;stroke-linecap:round;stroke-linejoin:round;stroke-width:0.5;visibility:hidden}
		.st6 {fill:#ffffff;stroke:#73ae42;stroke-linecap:round;stroke-linejoin:round;stroke-width:0.5}
		.st7 {fill:#73ae42}
		.st8 {stroke:#73ae42;stroke-linecap:round;stroke-linejoin:round;stroke-width:0.5}
		.st9 {fill:#ffffff;font-family:Calibri;font-size:1.00001em;font-weight:bold}
		.st10 {fill:#73ae42;stroke:#ffffff;stroke-linecap:round;stroke-linejoin:round;stroke-width:0.5}
		.st11 {fill:#73ae42;stroke:#73ae42;stroke-linecap:round;stroke-linejoin:round;stroke-width:0.5}
		.st12 {stroke:#5592c9;stroke-linecap:round;stroke-linejoin:round;stroke-width:0.5}
		.st13 {fill:#41719d;font-family:Calibri;font-size:0.75em}
		.st14 {font-size:1em}
		.st15 {fill:#5b9bd5;stroke:#5b9bd5;stroke-linecap:round;stroke-linejoin:round;stroke-width:0.5}
		.st16 {fill:#5b9bd5;stroke:#ffffff;stroke-linecap:round;stroke-linejoin:round;stroke-width:0.5}
		.st17 {marker-start:url(#mrkr4-225);stroke:#5592c9;stroke-linecap:round;stroke-linejoin:round;stroke-width:0.5}
		.st18 {fill:#ffffff;stroke:none;stroke-linecap:butt}
		.st19 {fill:none;stroke:none;stroke-linecap:round;stroke-linejoin:round;stroke-width:0.5}
		.st20 {fill:#5b9bd5;font-family:Calibri;font-size:0.75em}
		.st21 {fill:none;fill-rule:evenodd;font-size:12px;overflow:visible;stroke-linecap:square;stroke-miterlimit:3}
	]]>
	</style>

	<defs id="Markers">
		<g id="lend4">
			<path d="M 2 1 L 0 0 L 2 -1 L 2 1 " style="stroke:none"/>
		</g>
		<marker id="mrkr4-6" class="st2" v:arrowType="4" v:arrowSize="2" v:setback="12.08" refX="-12.08" orient="auto"
				markerUnits="strokeWidth" overflow="visible">
			<use xlink:href="#lend4" transform="scale(-6.04,-6.04) "/>
		</marker>
		<marker id="mrkr4-225" class="st2" v:arrowType="4" v:arrowSize="2" v:setback="11.36" refX="11.36" orient="auto"
				markerUnits="strokeWidth" overflow="visible">
			<use xlink:href="#lend4" transform="scale(6.04) "/>
		</marker>
	</defs>
	<g v:mID="0" v:index="1" v:groupContext="foregroundPage">
		<v:userDefs>
			<v:ud v:nameU="msvThemeOrder" v:val="VT0(0):26"/>
		</v:userDefs>
		<title>Page-1</title>
		<v:pageProperties v:drawingScale="0.0393701" v:pageScale="0.0393701" v:drawingUnits="24" v:shadowOffsetX="8.50394"
				v:shadowOffsetY="-8.50394"/>
		<v:layer v:name="Connector" v:index="0"/>
		<g id="shape113-1" v:mID="113" v:groupContext="shape" v:layerMember="0" transform="translate(109.134,-394.566)">
			<title>Dynamic connector.113</title>
			<desc>Personál</desc>
			<v:textBlock v:margins="rect(4,4,4,4)" v:tabSpace="42.5197"/>
			<v:textRect cx="0.283458" cy="581.379" width="40" height="17.6036"/>
			<path d="M0 595.28 L0 420.57 L236.82 420.57 L236.82 425.65" class="st1"/>
			<rect v:rectContext="textBkgnd" x="-13.7771" y="576.58" width="28.1209" height="9.59985" class="st3"/>
			<text x="-13.78" y="583.78" class="st4" v:langID="1029"><v:paragraph v:horizAlign="1"/><v:tabList/>Personál</text>		</g>
		<g id="group44-9" transform="translate(266.276,-139.448)" v:mID="44" v:groupContext="group">
			<v:userDefs>
				<v:ud v:nameU="visVersion" v:prompt="" v:val="VT0(15):26"/>
				<v:ud v:nameU="msvStructureType" v:prompt="" v:val="VT4(Container)"/>
				<v:ud v:nameU="msvSDContainerMargin" v:prompt="" v:val="VT0(0.11811023622047):24"/>
				<v:ud v:nameU="msvSDContainerResize" v:prompt="" v:val="VT0(1):26"/>
				<v:ud v:nameU="msvSDHeadingStyle" v:prompt="" v:val="VT0(1):26"/>
				<v:ud v:nameU="msvSDHeadingStyleCount" v:prompt="" v:val="VT0(1):26"/>
			</v:userDefs>
			<title>Composite state</title>
			<g id="shape44-10" v:mID="44" v:groupContext="groupContent">
				<rect x="0" y="225.312" width="220.858" height="369.964" rx="25.5118" ry="25.5118" class="st5"/>
			</g>
			<g id="group45-12" transform="translate(0,-347.56)" v:mID="45" v:groupContext="group">
				<v:userDefs>
					<v:ud v:nameU="UmlRole" v:prompt="" v:val="VT4(Title)"/>
					<v:ud v:nameU="msvStructureType" v:prompt="" v:val="VT4(Heading)"/>
					<v:ud v:nameU="msvSDContainerHeadingEdge" v:prompt="" v:val="VT4(Bottom)"/>
				</v:userDefs>
				<title>Sheet.45</title>
				<desc>ReservationView</desc>
				<g id="shape46-13" v:mID="46" v:groupContext="shape" transform="translate(0,347.56)">
					<title>Sheet.46</title>
					<v:userDefs>
						<v:ud v:nameU="UmlRole" v:prompt="" v:val="VT4(Body)"/>
					</v:userDefs>
					<path d="M25.51 595.28 L195.35 595.28 A25.5118 25.5118 -180 0 0 220.86 569.76 L220.86 273.23 A25.5118 25.5118
								 -180 0 0 195.35 247.72 L25.51 247.72 A25.5118 25.5118 -180 0 0 -0 273.23 L0 569.76 A25.5118 25.5118
								 -180 0 0 25.51 595.28 Z" class="st6"/>
				</g>
				<g id="shape45-15" v:mID="45" v:groupContext="groupContent">
					<v:textBlock v:margins="rect(4,4,4,4)" v:tabSpace="42.5197"/>
					<v:textRect cx="110.429" cy="584.074" width="220.86" height="22.4037"/>
					<path d="M110.43 595.28 L11.2 595.28 A11.2019 11.2019 0 0 1 -0 584.07 L0 584.07 A11.2019 11.2019 0 0 1 11.2 572.87
								 L110.43 572.87 L110.43 595.28 L209.66 595.28 A11.2019 11.2019 -180 0 0 220.86 584.07 L220.86 584.07
								 A11.2019 11.2019 -180 0 0 209.66 572.87 L110.43 572.87 L110.43 595.28 Z" class="st7"/>
					<path d="M110.43 595.28 L11.2 595.28 A11.2019 11.2019 0 0 1 -0 584.07 L0 584.07 A11.2019 11.2019 0 0 1 11.2 572.87
								 L110.43 572.87M110.43 595.28 L209.66 595.28 A11.2019 11.2019 -180 0 0 220.86 584.07 L220.86 584.07
								 A11.2019 11.2019 -180 0 0 209.66 572.87 L110.43 572.87" class="st8"/>
					<text x="68.17" y="587.67" class="st9" v:langID="1033"><v:paragraph v:horizAlign="1"/><v:tabList/>ReservationView</text>				</g>
			</g>
		</g>
		<g id="group4-19" transform="translate(311.508,-48.7396)" v:mID="4" v:groupContext="group">
			<v:userDefs>
				<v:ud v:nameU="visVersion" v:prompt="" v:val="VT0(15):26"/>
			</v:userDefs>
			<title>State</title>
			<g id="shape4-20" v:mID="4" v:groupContext="groupContent">
				<rect x="0" y="550.472" width="130.394" height="44.8037" rx="8.50394" ry="8.50394" class="st10"/>
			</g>
			<g id="shape5-22" v:mID="5" v:groupContext="shape" transform="translate(0,-22.4)">
				<title>Sheet.5</title>
				<desc>CustomerView</desc>
				<v:userDefs>
					<v:ud v:nameU="UmlRole" v:prompt="" v:val="VT4(Title)"/>
				</v:userDefs>
				<v:textBlock v:margins="rect(4,4,4,4)" v:tabSpace="42.5197"/>
				<v:textRect cx="65.1969" cy="584.074" width="130.4" height="22.4037"/>
				<path d="M8.5 595.28 L121.89 595.28 A8.50394 8.50394 -180 0 0 130.39 586.77 L130.39 581.38 A8.50394 8.50394 -180
							 0 0 121.89 572.87 L8.5 572.87 A8.50394 8.50394 -180 0 0 0 581.38 L0 586.77 A8.50394 8.50394 -180 0 0
							 8.5 595.28 Z" class="st11"/>
				<text x="28.55" y="587.67" class="st9" v:langID="1033"><v:paragraph v:horizAlign="1"/><v:tabList/>CustomerView</text>			</g>
			<g id="shape6-25" v:mID="6" v:groupContext="shape">
				<title>Sheet.6</title>
				<v:userDefs>
					<v:ud v:nameU="UmlRole" v:prompt="" v:val="VT4(Body)"/>
				</v:userDefs>
				<path d="M8.5 595.28 L121.89 595.28 A8.50394 8.50394 -180 0 0 130.39 586.77 L130.39 581.38 A8.50394 8.50394 -180
							 0 0 121.89 572.88 L8.5 572.88 A8.50394 8.50394 -180 0 0 0 581.38 L0 586.77 A8.50394 8.50394 -180 0 0
							 8.5 595.28 Z" class="st6"/>
			</g>
		</g>
		<g id="group7-27" transform="translate(311.072,-513.346)" v:mID="7" v:groupContext="group">
			<v:userDefs>
				<v:ud v:nameU="visVersion" v:prompt="" v:val="VT0(15):26"/>
			</v:userDefs>
			<title>State.7</title>
			<g id="shape7-28" v:mID="7" v:groupContext="groupContent">
				<rect x="0" y="550.472" width="130.394" height="44.8037" rx="8.50394" ry="8.50394" class="st10"/>
			</g>
			<g id="shape8-30" v:mID="8" v:groupContext="shape" transform="translate(0,-22.4)">
				<title>Sheet.8</title>
				<desc>RestaurantView</desc>
				<v:userDefs>
					<v:ud v:nameU="UmlRole" v:prompt="" v:val="VT4(Title)"/>
				</v:userDefs>
				<v:textBlock v:margins="rect(4,4,4,4)" v:tabSpace="42.5197"/>
				<v:textRect cx="65.1969" cy="584.074" width="130.4" height="22.4037"/>
				<path d="M8.5 595.28 L121.89 595.28 A8.50394 8.50394 -180 0 0 130.39 586.77 L130.39 581.38 A8.50394 8.50394 -180
							 0 0 121.89 572.87 L8.5 572.87 A8.50394 8.50394 -180 0 0 0 581.38 L0 586.77 A8.50394 8.50394 -180 0 0
							 8.5 595.28 Z" class="st11"/>
				<text x="25.24" y="587.67" class="st9" v:langID="1033"><v:paragraph v:horizAlign="1"/><v:tabList/>RestaurantView</text>			</g>
			<g id="shape9-33" v:mID="9" v:groupContext="shape">
				<title>Sheet.9</title>
				<v:userDefs>
					<v:ud v:nameU="UmlRole" v:prompt="" v:val="VT4(Body)"/>
				</v:userDefs>
				<path d="M8.5 595.28 L121.89 595.28 A8.50394 8.50394 -180 0 0 130.39 586.77 L130.39 581.38 A8.50394 8.50394 -180
							 0 0 121.89 572.88 L8.5 572.88 A8.50394 8.50394 -180 0 0 0 581.38 L0 586.77 A8.50394 8.50394 -180 0 0
							 8.5 595.28 Z" class="st6"/>
			</g>
		</g>
		<g id="group10-35" transform="translate(609.449,-510.236)" v:mID="10" v:groupContext="group">
			<v:userDefs>
				<v:ud v:nameU="visVersion" v:prompt="" v:val="VT0(15):26"/>
			</v:userDefs>
			<title>State.10</title>
			<g id="shape10-36" v:mID="10" v:groupContext="groupContent">
				<rect x="0" y="550.472" width="70.8661" height="44.8037" rx="8.50394" ry="8.50394" class="st10"/>
			</g>
			<g id="shape11-38" v:mID="11" v:groupContext="shape" transform="translate(0,-22.4)">
				<title>Sheet.11</title>
				<desc>OrderView</desc>
				<v:userDefs>
					<v:ud v:nameU="UmlRole" v:prompt="" v:val="VT4(Title)"/>
				</v:userDefs>
				<v:textBlock v:margins="rect(4,4,4,4)" v:tabSpace="42.5197"/>
				<v:textRect cx="35.4331" cy="584.074" width="70.87" height="22.4037"/>
				<path d="M8.5 595.28 L62.36 595.28 A8.50394 8.50394 -180 0 0 70.87 586.77 L70.87 581.38 A8.50394 8.50394 -180 0 0
							 62.36 572.87 L8.5 572.87 A8.50394 8.50394 -180 0 0 -0 581.38 L0 586.77 A8.50394 8.50394 -180 0 0 8.5
							 595.28 Z" class="st11"/>
				<text x="8.36" y="587.67" class="st9" v:langID="1033"><v:paragraph v:horizAlign="1"/><v:tabList/>OrderView</text>			</g>
			<g id="shape12-41" v:mID="12" v:groupContext="shape">
				<title>Sheet.12</title>
				<v:userDefs>
					<v:ud v:nameU="UmlRole" v:prompt="" v:val="VT4(Body)"/>
				</v:userDefs>
				<path d="M8.5 595.28 L62.36 595.28 A8.50394 8.50394 -180 0 0 70.87 586.77 L70.87 581.38 A8.50394 8.50394 -180 0 0
							 62.36 572.88 L8.5 572.88 A8.50394 8.50394 -180 0 0 -0 581.38 L0 586.77 A8.50394 8.50394 -180 0 0 8.5
							 595.28 Z" class="st6"/>
			</g>
		</g>
		<g id="group13-43" transform="translate(609.449,-408.74)" v:mID="13" v:groupContext="group">
			<v:userDefs>
				<v:ud v:nameU="visVersion" v:prompt="" v:val="VT0(15):26"/>
			</v:userDefs>
			<title>State.13</title>
			<g id="shape13-44" v:mID="13" v:groupContext="groupContent">
				<rect x="0" y="550.472" width="70.8661" height="44.8037" rx="8.50394" ry="8.50394" class="st10"/>
			</g>
			<g id="shape14-46" v:mID="14" v:groupContext="shape" transform="translate(0,-22.4)">
				<title>Sheet.14</title>
				<desc>MenuView</desc>
				<v:userDefs>
					<v:ud v:nameU="UmlRole" v:prompt="" v:val="VT4(Title)"/>
				</v:userDefs>
				<v:textBlock v:margins="rect(4,4,4,4)" v:tabSpace="42.5197"/>
				<v:textRect cx="35.4331" cy="584.074" width="70.87" height="22.4037"/>
				<path d="M8.5 595.28 L62.36 595.28 A8.50394 8.50394 -180 0 0 70.87 586.77 L70.87 581.38 A8.50394 8.50394 -180 0 0
							 62.36 572.87 L8.5 572.87 A8.50394 8.50394 -180 0 0 -0 581.38 L0 586.77 A8.50394 8.50394 -180 0 0 8.5
							 595.28 Z" class="st11"/>
				<text x="8.22" y="587.67" class="st9" v:langID="1033"><v:paragraph v:horizAlign="1"/><v:tabList/>MenuView</text>			</g>
			<g id="shape15-49" v:mID="15" v:groupContext="shape">
				<title>Sheet.15</title>
				<v:userDefs>
					<v:ud v:nameU="UmlRole" v:prompt="" v:val="VT4(Body)"/>
				</v:userDefs>
				<path d="M8.5 595.28 L62.36 595.28 A8.50394 8.50394 -180 0 0 70.87 586.77 L70.87 581.38 A8.50394 8.50394 -180 0 0
							 62.36 572.88 L8.5 572.88 A8.50394 8.50394 -180 0 0 -0 581.38 L0 586.77 A8.50394 8.50394 -180 0 0 8.5
							 595.28 Z" class="st6"/>
			</g>
		</g>
		<g id="shape27-51" v:mID="27" v:groupContext="shape" v:layerMember="0" transform="translate(311.072,-535.748)">
			<title>Dynamic connector</title>
			<desc>Zobrazit rezervace</desc>
			<v:textBlock v:margins="rect(4,4,4,4)" v:tabSpace="42.5197"/>
			<v:textRect cx="-74.3786" cy="685.005" width="77.3" height="18.8036" transform="rotate(-90)"/>
			<path d="M0 595.28 L-73.95 595.28 L-73.95 806.59" class="st12"/>
			<rect v:rectContext="textBkgnd" x="-718.632" y="-79.7784" width="67.2539" height="10.7998" transform="rotate(-90)"
					class="st3"/>
			<text x="-718.63" y="-71.68" transform="rotate(-90)" class="st13" v:langID="1033"><v:paragraph v:horizAlign="1"/><v:tabList/>Zobrazit rezervace</text>		</g>
		<g id="group47-56" transform="translate(324.216,-376.454)" v:mID="47" v:groupContext="group">
			<v:userDefs>
				<v:ud v:nameU="visVersion" v:prompt="" v:val="VT0(15):26"/>
			</v:userDefs>
			<title>State.47</title>
			<g id="shape47-57" v:mID="47" v:groupContext="groupContent">
				<rect x="0" y="550.472" width="110.403" height="44.8037" rx="8.50394" ry="8.50394" class="st10"/>
			</g>
			<g id="shape48-59" v:mID="48" v:groupContext="shape" transform="translate(0,-22.4)">
				<title>Sheet.48</title>
				<desc>Potvrdit rezervaci</desc>
				<v:userDefs>
					<v:ud v:nameU="UmlRole" v:prompt="" v:val="VT4(Title)"/>
				</v:userDefs>
				<v:textBlock v:margins="rect(4,4,4,4)" v:tabSpace="42.5197"/>
				<v:textRect cx="55.2015" cy="584.074" width="110.41" height="22.4037"/>
				<path d="M8.5 595.28 L101.9 595.28 A8.50394 8.50394 -180 0 0 110.4 586.77 L110.4 581.38 A8.50394 8.50394 -180 0 0
							 101.9 572.87 L8.5 572.87 A8.50394 8.50394 -180 0 0 0 581.38 L0 586.77 A8.50394 8.50394 -180 0 0 8.5
							 595.28 Z" class="st11"/>
				<text x="11.12" y="587.67" class="st9" v:langID="1033"><v:paragraph v:horizAlign="1"/><v:tabList/>Potvrdit rezervaci</text>			</g>
			<g id="shape49-62" v:mID="49" v:groupContext="shape">
				<title>Sheet.49</title>
				<v:userDefs>
					<v:ud v:nameU="UmlRole" v:prompt="" v:val="VT4(Body)"/>
				</v:userDefs>
				<path d="M8.5 595.28 L101.9 595.28 A8.50394 8.50394 -180 0 0 110.4 586.77 L110.4 581.38 A8.50394 8.50394 -180 0 0
							 101.9 572.88 L8.5 572.88 A8.50394 8.50394 -180 0 0 0 581.38 L0 586.77 A8.50394 8.50394 -180 0 0 8.5
							 595.28 Z" class="st6"/>
			</g>
		</g>
		<g id="group50-64" transform="translate(324.216,-320.866)" v:mID="50" v:groupContext="group">
			<v:userDefs>
				<v:ud v:nameU="visVersion" v:prompt="" v:val="VT0(15):26"/>
			</v:userDefs>
			<title>State.50</title>
			<g id="shape50-65" v:mID="50" v:groupContext="groupContent">
				<rect x="0" y="550.472" width="110.403" height="44.8037" rx="8.50394" ry="8.50394" class="st10"/>
			</g>
			<g id="shape51-67" v:mID="51" v:groupContext="shape" transform="translate(0,-22.4)">
				<title>Sheet.51</title>
				<desc>Zamítnout rezervaci</desc>
				<v:userDefs>
					<v:ud v:nameU="UmlRole" v:prompt="" v:val="VT4(Title)"/>
				</v:userDefs>
				<v:textBlock v:margins="rect(4,4,4,4)" v:tabSpace="42.5197"/>
				<v:textRect cx="55.2015" cy="584.074" width="110.41" height="22.4037"/>
				<path d="M8.5 595.28 L101.9 595.28 A8.50394 8.50394 -180 0 0 110.4 586.77 L110.4 581.38 A8.50394 8.50394 -180 0 0
							 101.9 572.87 L8.5 572.87 A8.50394 8.50394 -180 0 0 0 581.38 L0 586.77 A8.50394 8.50394 -180 0 0 8.5
							 595.28 Z" class="st11"/>
				<text x="5.36" y="587.67" class="st9" v:langID="1033"><v:paragraph v:horizAlign="1"/><v:tabList/>Zam<tspan
							class="st14" v:langID="1029">ítnout rezervaci</tspan></text>			</g>
			<g id="shape52-71" v:mID="52" v:groupContext="shape">
				<title>Sheet.52</title>
				<v:userDefs>
					<v:ud v:nameU="UmlRole" v:prompt="" v:val="VT4(Body)"/>
				</v:userDefs>
				<path d="M8.5 595.28 L101.9 595.28 A8.50394 8.50394 -180 0 0 110.4 586.77 L110.4 581.38 A8.50394 8.50394 -180 0 0
							 101.9 572.88 L8.5 572.88 A8.50394 8.50394 -180 0 0 0 581.38 L0 586.77 A8.50394 8.50394 -180 0 0 8.5
							 595.28 Z" class="st6"/>
			</g>
		</g>
		<g id="group53-73" transform="translate(324.216,-265.278)" v:mID="53" v:groupContext="group">
			<v:userDefs>
				<v:ud v:nameU="visVersion" v:prompt="" v:val="VT0(15):26"/>
			</v:userDefs>
			<title>State.53</title>
			<g id="shape53-74" v:mID="53" v:groupContext="groupContent">
				<rect x="0" y="550.472" width="110.403" height="44.8037" rx="8.50394" ry="8.50394" class="st10"/>
			</g>
			<g id="shape54-76" v:mID="54" v:groupContext="shape" transform="translate(0,-22.4)">
				<title>Sheet.54</title>
				<desc>Zrušit rezervaci</desc>
				<v:userDefs>
					<v:ud v:nameU="UmlRole" v:prompt="" v:val="VT4(Title)"/>
				</v:userDefs>
				<v:textBlock v:margins="rect(4,4,4,4)" v:tabSpace="42.5197"/>
				<v:textRect cx="55.2015" cy="584.074" width="110.41" height="22.4037"/>
				<path d="M8.5 595.28 L101.9 595.28 A8.50394 8.50394 -180 0 0 110.4 586.77 L110.4 581.38 A8.50394 8.50394 -180 0 0
							 101.9 572.87 L8.5 572.87 A8.50394 8.50394 -180 0 0 0 581.38 L0 586.77 A8.50394 8.50394 -180 0 0 8.5
							 595.28 Z" class="st11"/>
				<text x="17.2" y="587.67" class="st9" v:langID="1029"><v:paragraph v:horizAlign="1"/><v:tabList/>Zrušit rezervaci</text>			</g>
			<g id="shape55-79" v:mID="55" v:groupContext="shape">
				<title>Sheet.55</title>
				<v:userDefs>
					<v:ud v:nameU="UmlRole" v:prompt="" v:val="VT4(Body)"/>
				</v:userDefs>
				<path d="M8.5 595.28 L101.9 595.28 A8.50394 8.50394 -180 0 0 110.4 586.77 L110.4 581.38 A8.50394 8.50394 -180 0 0
							 101.9 572.88 L8.5 572.88 A8.50394 8.50394 -180 0 0 0 581.38 L0 586.77 A8.50394 8.50394 -180 0 0 8.5
							 595.28 Z" class="st6"/>
			</g>
		</g>
		<g id="shape59-81" v:mID="59" v:groupContext="shape" v:layerMember="0" transform="translate(434.619,-398.855)">
			<title>Dynamic connector.59</title>
			<path d="M0 595.28 L24.17 595.28 L24.17 669.7 L52.51 669.7" class="st12"/>
		</g>
		<g id="shape64-84" v:mID="64" v:groupContext="shape" v:layerMember="0" transform="translate(487.134,-324.43)">
			<title>Dynamic connector.64</title>
			<desc>Potvrzení/ Zamítnutí/ Zrušení</desc>
			<v:textBlock v:margins="rect(4,4,4,4)" v:tabSpace="42.5197"/>
			<v:textRect cx="35.8583" cy="555.091" width="44.31" height="36.8035"/>
			<path d="M0 595.28 L36 595.28 L36 383.96 L-39.63 383.96" class="st1"/>
			<rect v:rectContext="textBkgnd" x="18.6107" y="540.692" width="34.4954" height="28.7996" class="st3"/>
			<text x="19.01" y="547.89" class="st4" v:langID="1029"><v:paragraph v:horizAlign="1"/><v:tabList/>Potvrzení/<v:newlineChar/><tspan
						x="18.61" dy="1.2em" class="st14">Zamítnutí/<v:lf/></tspan><tspan x="23.92" dy="1.2em" class="st14">Zrušení</tspan></text>		</g>
		<g id="group67-93" transform="translate(324.216,-209.69)" v:mID="67" v:groupContext="group">
			<v:userDefs>
				<v:ud v:nameU="visVersion" v:prompt="" v:val="VT0(15):26"/>
			</v:userDefs>
			<title>State.67</title>
			<g id="shape67-94" v:mID="67" v:groupContext="groupContent">
				<rect x="0" y="550.472" width="110.403" height="44.8037" rx="8.50394" ry="8.50394" class="st10"/>
			</g>
			<g id="shape68-96" v:mID="68" v:groupContext="shape" transform="translate(0,-22.4)">
				<title>Sheet.68</title>
				<desc>Vytvořit rezervaci</desc>
				<v:userDefs>
					<v:ud v:nameU="UmlRole" v:prompt="" v:val="VT4(Title)"/>
				</v:userDefs>
				<v:textBlock v:margins="rect(4,4,4,4)" v:tabSpace="42.5197"/>
				<v:textRect cx="55.2015" cy="584.074" width="110.41" height="22.4037"/>
				<path d="M8.5 595.28 L101.9 595.28 A8.50394 8.50394 -180 0 0 110.4 586.77 L110.4 581.38 A8.50394 8.50394 -180 0 0
							 101.9 572.87 L8.5 572.87 A8.50394 8.50394 -180 0 0 0 581.38 L0 586.77 A8.50394 8.50394 -180 0 0 8.5
							 595.28 Z" class="st11"/>
				<text x="11.15" y="587.67" class="st9" v:langID="1029"><v:paragraph v:horizAlign="1"/><v:tabList/>Vytvořit rezervaci</text>			</g>
			<g id="shape69-99" v:mID="69" v:groupContext="shape">
				<title>Sheet.69</title>
				<v:userDefs>
					<v:ud v:nameU="UmlRole" v:prompt="" v:val="VT4(Body)"/>
				</v:userDefs>
				<path d="M8.5 595.28 L101.9 595.28 A8.50394 8.50394 -180 0 0 110.4 586.77 L110.4 581.38 A8.50394 8.50394 -180 0 0
							 101.9 572.88 L8.5 572.88 A8.50394 8.50394 -180 0 0 0 581.38 L0 586.77 A8.50394 8.50394 -180 0 0 8.5
							 595.28 Z" class="st6"/>
			</g>
		</g>
		<g id="group70-101" transform="translate(324.216,-154.102)" v:mID="70" v:groupContext="group">
			<v:userDefs>
				<v:ud v:nameU="visVersion" v:prompt="" v:val="VT0(15):26"/>
			</v:userDefs>
			<title>State.70</title>
			<g id="shape70-102" v:mID="70" v:groupContext="groupContent">
				<rect x="0" y="550.472" width="110.403" height="44.8037" rx="8.50394" ry="8.50394" class="st10"/>
			</g>
			<g id="shape71-104" v:mID="71" v:groupContext="shape" transform="translate(0,-22.4)">
				<title>Sheet.71</title>
				<desc>Stornovat rezervaci</desc>
				<v:userDefs>
					<v:ud v:nameU="UmlRole" v:prompt="" v:val="VT4(Title)"/>
				</v:userDefs>
				<v:textBlock v:margins="rect(4,4,4,4)" v:tabSpace="42.5197"/>
				<v:textRect cx="55.2015" cy="584.074" width="110.41" height="22.4037"/>
				<path d="M8.5 595.28 L101.9 595.28 A8.50394 8.50394 -180 0 0 110.4 586.77 L110.4 581.38 A8.50394 8.50394 -180 0 0
							 101.9 572.87 L8.5 572.87 A8.50394 8.50394 -180 0 0 0 581.38 L0 586.77 A8.50394 8.50394 -180 0 0 8.5
							 595.28 Z" class="st11"/>
				<text x="6.77" y="587.67" class="st9" v:langID="1029"><v:paragraph v:horizAlign="1"/><v:tabList/>Stornovat rezervaci</text>			</g>
			<g id="shape72-107" v:mID="72" v:groupContext="shape">
				<title>Sheet.72</title>
				<v:userDefs>
					<v:ud v:nameU="UmlRole" v:prompt="" v:val="VT4(Body)"/>
				</v:userDefs>
				<path d="M8.5 595.28 L101.9 595.28 A8.50394 8.50394 -180 0 0 110.4 586.77 L110.4 581.38 A8.50394 8.50394 -180 0 0
							 101.9 572.88 L8.5 572.88 A8.50394 8.50394 -180 0 0 0 581.38 L0 586.77 A8.50394 8.50394 -180 0 0 8.5
							 595.28 Z" class="st6"/>
			</g>
		</g>
		<g id="shape81-109" v:mID="81" v:groupContext="shape" v:layerMember="0" transform="translate(237.118,-332.294)">
			<title>Dynamic connector.81</title>
			<path d="M0 601.59 L0 603.14 L23.12 603.14" class="st1"/>
		</g>
		<g id="shape83-114" v:mID="83" v:groupContext="shape" v:layerMember="0" transform="translate(266.276,-324.43)">
			<title>Dynamic connector.83</title>
			<desc>Zamítnout</desc>
			<v:textBlock v:margins="rect(4,4,4,4)" v:tabSpace="42.5197"/>
			<v:textRect cx="32.4957" cy="576.714" width="43.61" height="17.6036"/>
			<path d="M0 595.28 L11.09 595.28 L11.09 576.44 L51.9 576.44" class="st1"/>
			<rect v:rectContext="textBkgnd" x="15.6016" y="571.914" width="33.7885" height="9.59985" class="st3"/>
			<text x="15.6" y="579.11" class="st4" v:langID="1029"><v:paragraph v:horizAlign="1"/><v:tabList/>Zamítnout</text>		</g>
		<g id="shape84-121" v:mID="84" v:groupContext="shape" v:layerMember="0" transform="translate(266.276,-324.43)">
			<title>Dynamic connector.84</title>
			<desc>Zrušit</desc>
			<v:textBlock v:margins="rect(4,4,4,4)" v:tabSpace="42.5197"/>
			<v:textRect cx="32.7791" cy="631.989" width="40" height="17.6036"/>
			<path d="M0 595.28 L11.09 595.28 L11.09 632.03 L51.9 632.03" class="st1"/>
			<rect v:rectContext="textBkgnd" x="23.5878" y="627.19" width="18.3826" height="9.59985" class="st3"/>
			<text x="23.59" y="634.39" class="st4" v:langID="1029"><v:paragraph v:horizAlign="1"/><v:tabList/>Zrušit</text>		</g>
		<g id="shape85-128" v:mID="85" v:groupContext="shape" v:layerMember="0" transform="translate(266.276,-324.43)">
			<title>Dynamic connector.85</title>
			<desc>Potvrdit</desc>
			<v:textBlock v:margins="rect(4,4,4,4)" v:tabSpace="42.5197"/>
			<v:textRect cx="31.9287" cy="521.155" width="40" height="17.6036"/>
			<path d="M0 595.28 L11.09 595.28 L11.09 520.85 L51.9 520.85" class="st1"/>
			<rect v:rectContext="textBkgnd" x="18.8526" y="516.355" width="26.1521" height="9.59985" class="st3"/>
			<text x="18.85" y="523.55" class="st4" v:langID="1029"><v:paragraph v:horizAlign="1"/><v:tabList/>Potvrdit</text>		</g>
		<g id="shape86-135" v:mID="86" v:groupContext="shape" v:layerMember="0" transform="translate(434.619,-343.267)">
			<title>Dynamic connector.86</title>
			<path d="M0 595.28 L24.17 595.28 L24.17 614.11 L52.51 614.11" class="st12"/>
		</g>
		<g id="shape87-138" v:mID="87" v:groupContext="shape" v:layerMember="0" transform="translate(434.619,-287.68)">
			<title>Dynamic connector.87</title>
			<path d="M0 595.28 L24.17 595.28 L24.17 558.52 L52.51 558.52" class="st12"/>
		</g>
		<g id="shape88-141" v:mID="88" v:groupContext="shape" v:layerMember="0" transform="translate(311.508,-71.1415)">
			<title>Dynamic connector.88</title>
			<path d="M0 595.28 L-73.26 595.28 L-73.26 458.94" class="st12"/>
		</g>
		<g id="shape89-144" v:mID="89" v:groupContext="shape" v:layerMember="0" transform="translate(515.48,-203.785)">
			<title>Dynamic connector.89</title>
			<desc>Vytvoření/ Storno</desc>
			<v:textBlock v:margins="rect(4,4,4,4)" v:tabSpace="42.5197"/>
			<v:textRect cx="-0.141728" cy="641.791" width="44.39" height="27.2035"/>
			<path d="M0 595.28 L0 719.12 L-67.54 719.12" class="st1"/>
			<rect v:rectContext="textBkgnd" x="-17.4267" y="632.191" width="34.5701" height="19.1997" class="st3"/>
			<text x="-17.43" y="639.39" class="st4" v:langID="1029"><v:paragraph v:horizAlign="1"/><v:tabList/>Vytvoření/<v:lf/><tspan
						x="-11.03" dy="1.2em" class="st14">Storno</tspan></text>		</g>
		<g id="shape90-152" v:mID="90" v:groupContext="shape" v:layerMember="0" transform="translate(238.252,-200.393)">
			<title>Dynamic connector.90</title>
			<path d="M0 588.19 L28.02 588.19" class="st12"/>
		</g>
		<g id="shape91-155" v:mID="91" v:groupContext="shape" v:layerMember="0" transform="translate(434.619,-232.092)">
			<title>Dynamic connector.91</title>
			<path d="M0 595.28 L29.84 595.28 L29.84 625.56" class="st12"/>
		</g>
		<g id="shape100-158" v:mID="100" v:groupContext="shape" v:layerMember="0" transform="translate(434.619,-176.504)">
			<title>Dynamic connector.100</title>
			<path d="M0 595.28 L29.9 595.28 L29.9 567.97 L52.51 567.97" class="st12"/>
		</g>
		<g id="shape101-161" v:mID="101" v:groupContext="shape" v:layerMember="0" transform="translate(487.134,-196.699)">
			<title>Dynamic connector.101</title>
			<path d="M0 588.19 L28.35 588.19" class="st12"/>
		</g>
		<g id="shape106-164" v:mID="106" v:groupContext="shape" v:layerMember="0" transform="translate(266.276,-207.48)">
			<title>Dynamic connector.106</title>
			<desc>Vytvořit</desc>
			<v:textBlock v:margins="rect(4,4,4,4)" v:tabSpace="42.5197"/>
			<v:textRect cx="32.7791" cy="570.314" width="40" height="17.6036"/>
			<path d="M0 595.28 L12.34 595.28 L12.34 570.66 L51.9 570.66" class="st1"/>
			<rect v:rectContext="textBkgnd" x="19.7909" y="565.515" width="25.9763" height="9.59985" class="st3"/>
			<text x="19.79" y="572.71" class="st4" v:langID="1029"><v:paragraph v:horizAlign="1"/><v:tabList/>Vytvořit</text>		</g>
		<g id="shape107-171" v:mID="107" v:groupContext="shape" v:layerMember="0" transform="translate(266.276,-207.48)">
			<title>Dynamic connector.107</title>
			<desc>Stornovat</desc>
			<v:textBlock v:margins="rect(4,4,4,4)" v:tabSpace="42.5197"/>
			<v:textRect cx="34.1965" cy="626.157" width="41.73" height="17.6036"/>
			<path d="M0 595.28 L12.37 595.28 L12.37 626.25 L51.9 626.25" class="st1"/>
			<rect v:rectContext="textBkgnd" x="18.2415" y="621.357" width="31.9101" height="9.59985" class="st3"/>
			<text x="18.24" y="628.56" class="st4" v:langID="1029"><v:paragraph v:horizAlign="1"/><v:tabList/>Stornovat</text>		</g>
		<g id="shape108-178" v:mID="108" v:groupContext="shape" transform="translate(18,-360.551)">
			<title>Initial state</title>
			<v:userDefs>
				<v:ud v:nameU="visVersion" v:prompt="" v:val="VT0(15):26"/>
			</v:userDefs>
			<ellipse cx="17.0079" cy="578.268" rx="17.0079" ry="17.0079" class="st15"/>
		</g>
		<g id="shape109-180" v:mID="109" v:groupContext="shape" transform="translate(92.126,-360.551)">
			<title>Choice</title>
			<v:userDefs>
				<v:ud v:nameU="visVersion" v:prompt="" v:val="VT0(15):26"/>
			</v:userDefs>
			<path d="M17.01 595.28 L34.02 578.27 L17.01 561.26 L0 578.27 L17.01 595.28 Z" class="st16"/>
		</g>
		<g id="shape110-182" v:mID="110" v:groupContext="shape" v:layerMember="0" transform="translate(52.0157,-370.472)">
			<title>Dynamic connector.110</title>
			<path d="M0 588.19 L34.07 588.19" class="st1"/>
		</g>
		<g id="shape111-187" v:mID="111" v:groupContext="shape" v:layerMember="0" transform="translate(109.134,-360.551)">
			<title>Dynamic connector.111</title>
			<desc>Zákazník</desc>
			<v:textBlock v:margins="rect(4,4,4,4)" v:tabSpace="42.5197"/>
			<v:textRect cx="0.283458" cy="604.238" width="40" height="17.6036"/>
			<path d="M0 595.28 L0 929.02 L267.57 929.02 L267.57 913.13" class="st1"/>
			<rect v:rectContext="textBkgnd" x="-13.6579" y="599.438" width="27.8828" height="9.59985" class="st3"/>
			<text x="-13.66" y="606.64" class="st4" v:langID="1029"><v:paragraph v:horizAlign="1"/><v:tabList/>Zákazník</text>		</g>
		<g id="shape115-194" v:mID="115" v:groupContext="shape" v:layerMember="0" transform="translate(411.024,-574.488)">
			<title>Dynamic connector.115</title>
			<desc>Zobrazit menu</desc>
			<v:textBlock v:margins="rect(4,4,4,4)" v:tabSpace="42.5197"/>
			<v:textRect cx="168.596" cy="725.567" width="56.87" height="17.6036"/>
			<path d="M0 595.28 L141.73 595.28 L141.73 725.29 L192.39 725.29" class="st1"/>
			<rect v:rectContext="textBkgnd" x="145.071" y="720.767" width="47.0503" height="9.59985" class="st3"/>
			<text x="145.07" y="727.97" class="st4" v:langID="1029"><v:paragraph v:horizAlign="1"/><v:tabList/>Zobrazit menu</text>		</g>
		<g id="shape116-201" v:mID="116" v:groupContext="shape" v:layerMember="0" transform="translate(411.024,-574.488)">
			<title>Dynamic connector.116</title>
			<desc>Zobrazit objednávku</desc>
			<v:textBlock v:margins="rect(4,4,4,4)" v:tabSpace="42.5197"/>
			<v:textRect cx="167.811" cy="621.543" width="47.82" height="27.2035"/>
			<path d="M0 595.28 L141.73 595.28 L141.73 621.76 L192.51 621.76" class="st1"/>
			<rect v:rectContext="textBkgnd" x="148.807" y="611.944" width="38.0078" height="19.1997" class="st3"/>
			<text x="154.58" y="619.14" class="st4" v:langID="1029"><v:paragraph v:horizAlign="1"/><v:tabList/>Zobrazit<v:lf/><tspan
						x="148.81" dy="1.2em" class="st14">objednávku</tspan></text>		</g>
		<g id="shape123-209" v:mID="123" v:groupContext="shape" v:layerMember="0" transform="translate(403.937,-558.15)">
			<title>Dynamic connector.123</title>
			<path d="M7.09 595.28 L7.09 578.94" class="st12"/>
		</g>
		<g id="group131-212" transform="translate(644.882,-307.243)" v:mID="131" v:groupContext="group">
			<v:userDefs>
				<v:ud v:nameU="visVersion" v:prompt="" v:val="VT0(15):26"/>
			</v:userDefs>
			<title>State.131</title>
			<g id="shape131-213" v:mID="131" v:groupContext="groupContent">
				<rect x="0" y="550.472" width="89.1522" height="44.8037" rx="8.50394" ry="8.50394" class="st10"/>
			</g>
			<g id="shape132-215" v:mID="132" v:groupContext="shape" transform="translate(0,-22.4)">
				<title>Sheet.132</title>
				<desc>BookableView</desc>
				<v:userDefs>
					<v:ud v:nameU="UmlRole" v:prompt="" v:val="VT4(Title)"/>
				</v:userDefs>
				<v:textBlock v:margins="rect(4,4,4,4)" v:tabSpace="42.5197"/>
				<v:textRect cx="44.5761" cy="584.074" width="89.16" height="22.4037"/>
				<path d="M8.5 595.28 L80.65 595.28 A8.50394 8.50394 -180 0 0 89.15 586.77 L89.15 581.38 A8.50394 8.50394 -180 0 0
							 80.65 572.87 L8.5 572.87 A8.50394 8.50394 -180 0 0 0 581.38 L0 586.77 A8.50394 8.50394 -180 0 0 8.5
							 595.28 Z" class="st11"/>
				<text x="8.69" y="587.67" class="st9" v:langID="1033"><v:paragraph v:horizAlign="1"/><v:tabList/>BookableView</text>			</g>
			<g id="shape133-218" v:mID="133" v:groupContext="shape">
				<title>Sheet.133</title>
				<v:userDefs>
					<v:ud v:nameU="UmlRole" v:prompt="" v:val="VT4(Body)"/>
				</v:userDefs>
				<path d="M8.5 595.28 L80.65 595.28 A8.50394 8.50394 -180 0 0 89.15 586.77 L89.15 581.38 A8.50394 8.50394 -180 0 0
							 80.65 572.88 L8.5 572.88 A8.50394 8.50394 -180 0 0 0 581.38 L0 586.77 A8.50394 8.50394 -180 0 0 8.5
							 595.28 Z" class="st6"/>
			</g>
		</g>
		<g id="shape137-220" v:mID="137" v:groupContext="shape" v:layerMember="0" transform="translate(644.882,-341.48)">
			<title>Dynamic connector.137</title>
			<desc>Vybrat jednotku/ Zobrazit jednotku</desc>
			<v:textBlock v:margins="rect(4,4,4,4)" v:tabSpace="42.5197"/>
			<v:textRect cx="-46.7717" cy="595.181" width="67.13" height="27.2035"/>
			<path d="M-5.68 595.28 L-6.04 595.28 L-92.13 595.28 L-92.13 362.27 L-233.86 362.27" class="st17"/>
			<rect v:rectContext="textBkgnd" x="-75.4276" y="585.581" width="57.3121" height="19.1997" class="st3"/>
			<text x="-74.57" y="592.78" class="st4" v:langID="1029"><v:paragraph v:horizAlign="1"/><v:tabList/>Vybrat <tspan
						class="st14" v:langID="1033">jednotku</tspan>/<v:lf/><tspan x="-75.43" dy="1.2em" class="st14">Zobrazit </tspan><tspan
						class="st14" v:langID="1033">jednotku</tspan></text>		</g>
		<g id="shape142-231" v:mID="142" v:groupContext="shape" v:layerMember="0" transform="translate(420.945,-555.748)">
			<title>Dynamic connector.142</title>
			<path d="M7.09 587.19 L7.09 586.83 L7.09 583.5" class="st17"/>
		</g>
		<g id="shape141-236" v:mID="141" v:groupContext="shape" v:layerMember="0" transform="translate(644.882,-320.504)">
			<title>Dynamic connector.141</title>
			<desc>Zavřít</desc>
			<v:textBlock v:margins="rect(4,4,4,4)" v:tabSpace="42.5197"/>
			<v:textRect cx="-151.736" cy="347.315" width="40" height="17.6036"/>
			<path d="M0 595.28 L-98.53 595.28 L-98.53 348.26 L-216.85 348.26" class="st12"/>
			<rect v:rectContext="textBkgnd" x="-160.983" y="342.515" width="18.496" height="9.59985" class="st3"/>
			<text x="-160.98" y="349.72" class="st4" v:langID="1029"><v:paragraph v:horizAlign="1"/><v:tabList/>Zavřít</text>		</g>
		<g id="shape143-241" v:mID="143" v:groupContext="shape" v:layerMember="0" transform="translate(609.449,-412.441)">
			<title>Dynamic connector.143</title>
			<path d="M0 588.19 L-54.33 588.19 A2.3622 2.3622 -180 0 0 -59.06 588.19 L-63.09 588.19" class="st12"/>
		</g>
		<g id="shape144-244" v:mID="144" v:groupContext="shape" v:layerMember="0" transform="translate(609.449,-515.244)">
			<title>Dynamic connector.144</title>
			<path d="M0 588.19 L-54.33 588.19 A2.3622 2.3622 -180 0 0 -59.06 588.19 L-63.09 588.19" class="st12"/>
		</g>
		<g id="group146-247" transform="translate(546.731,-48.7396)" v:mID="146" v:groupContext="group">
			<v:userDefs>
				<v:ud v:nameU="visVersion" v:prompt="" v:val="VT0(15):26"/>
			</v:userDefs>
			<title>State.146</title>
			<g id="shape146-248" v:mID="146" v:groupContext="groupContent">
				<rect x="0" y="550.472" width="82.9166" height="44.8037" rx="8.50394" ry="8.50394" class="st10"/>
			</g>
			<g id="shape147-250" v:mID="147" v:groupContext="shape" transform="translate(0,-22.4)">
				<title>Sheet.147</title>
				<desc>FeedbackView</desc>
				<v:userDefs>
					<v:ud v:nameU="UmlRole" v:prompt="" v:val="VT4(Title)"/>
				</v:userDefs>
				<v:textBlock v:margins="rect(4,4,4,4)" v:tabSpace="42.5197"/>
				<v:textRect cx="41.4583" cy="584.074" width="82.92" height="22.4037"/>
				<path d="M8.5 595.28 L74.41 595.28 A8.50394 8.50394 -180 0 0 82.92 586.77 L82.92 581.38 A8.50394 8.50394 -180 0 0
							 74.41 572.87 L8.5 572.87 A8.50394 8.50394 -180 0 0 -0 581.38 L0 586.77 A8.50394 8.50394 -180 0 0 8.5
							 595.28 Z" class="st11"/>
				<text x="5.36" y="587.67" class="st9" v:langID="1029"><v:paragraph v:horizAlign="1"/><v:tabList/>FeedbackView</text>			</g>
			<g id="shape148-253" v:mID="148" v:groupContext="shape">
				<title>Sheet.148</title>
				<v:userDefs>
					<v:ud v:nameU="UmlRole" v:prompt="" v:val="VT4(Body)"/>
				</v:userDefs>
				<path d="M8.5 595.28 L74.41 595.28 A8.50394 8.50394 -180 0 0 82.92 586.77 L82.92 581.38 A8.50394 8.50394 -180 0 0
							 74.41 572.88 L8.5 572.88 A8.50394 8.50394 -180 0 0 -0 581.38 L0 586.77 A8.50394 8.50394 -180 0 0 8.5
							 595.28 Z" class="st6"/>
			</g>
		</g>
		<g id="shape149-255" v:mID="149" v:groupContext="shape" v:layerMember="0" transform="translate(441.902,-77.9528)">
			<title>Dynamic connector.149</title>
			<desc>Napsat feedback</desc>
			<v:textBlock v:margins="rect(4,4,4,4)" v:tabSpace="42.5197"/>
			<v:textRect cx="52.4145" cy="602.362" width="64.13" height="17.6036"/>
			<path d="M0 602.36 L98.79 602.36" class="st1"/>
			<rect v:rectContext="textBkgnd" x="25.2605" y="597.562" width="54.3082" height="9.59985" class="st3"/>
			<text x="25.26" y="604.76" class="st4" v:langID="1029"><v:paragraph v:horizAlign="1"/><v:tabList/>Napsat feedback</text>		</g>
		<g id="shape150-262" v:mID="150" v:groupContext="shape" v:layerMember="0" transform="translate(546.749,-49.6063)">
			<title>Dynamic connector.150</title>
			<desc>Potvrdit</desc>
			<v:textBlock v:margins="rect(4,4,4,4)" v:tabSpace="42.5197"/>
			<v:textRect cx="-52.4323" cy="588.189" width="40" height="17.6036"/>
			<path d="M0 588.19 L-98.82 588.19" class="st1"/>
			<rect v:rectContext="textBkgnd" x="-65.5084" y="583.389" width="26.1521" height="9.59985" class="st18"/>
			<text x="-65.51" y="590.59" class="st4" v:langID="1029"><v:paragraph v:horizAlign="1"/><v:tabList/>Potvrdit</text>		</g>
		<g id="shape151-269" v:mID="151" v:groupContext="shape" transform="translate(170.079,-562.677)">
			<title>Sheet.151</title>
			<desc>Zobrazit aktuální stav restaurace</desc>
			<v:textBlock v:margins="rect(4,4,4,4)" v:tabSpace="42.5197"/>
			<v:textRect cx="55.9843" cy="590.226" width="111.97" height="10.0989"/>
			<rect x="0" y="585.177" width="111.969" height="10.0989" class="st19"/>
			<text x="16.95" y="587.53" class="st20" v:langID="1029"><v:paragraph v:horizAlign="1"/><v:tabList/>Zobrazit aktuální stav <tspan
						x="36.52" dy="1.2em" class="st14">restaurace</tspan></text>		</g>
		<g id="group152-273" transform="translate(323.865,-433.701)" v:mID="152" v:groupContext="group">
			<v:userDefs>
				<v:ud v:nameU="visVersion" v:prompt="" v:val="VT0(15):26"/>
			</v:userDefs>
			<title>State.152</title>
			<g id="shape152-274" v:mID="152" v:groupContext="groupContent">
				<rect x="0" y="550.472" width="110.403" height="44.8037" rx="8.50394" ry="8.50394" class="st10"/>
			</g>
			<g id="shape153-276" v:mID="153" v:groupContext="shape" transform="translate(0,-22.4)">
				<title>Sheet.153</title>
				<desc>Editovat rezervaci</desc>
				<v:userDefs>
					<v:ud v:nameU="UmlRole" v:prompt="" v:val="VT4(Title)"/>
				</v:userDefs>
				<v:textBlock v:margins="rect(4,4,4,4)" v:tabSpace="42.5197"/>
				<v:textRect cx="55.2015" cy="584.074" width="110.41" height="22.4037"/>
				<path d="M8.5 595.28 L101.9 595.28 A8.50394 8.50394 -180 0 0 110.4 586.77 L110.4 581.38 A8.50394 8.50394 -180 0 0
							 101.9 572.87 L8.5 572.87 A8.50394 8.50394 -180 0 0 0 581.38 L0 586.77 A8.50394 8.50394 -180 0 0 8.5
							 595.28 Z" class="st11"/>
				<text x="10.56" y="587.67" class="st9" v:langID="1029"><v:paragraph v:horizAlign="1"/><v:tabList/>Editovat rezervaci</text>			</g>
			<g id="shape154-279" v:mID="154" v:groupContext="shape">
				<title>Sheet.154</title>
				<v:userDefs>
					<v:ud v:nameU="UmlRole" v:prompt="" v:val="VT4(Body)"/>
				</v:userDefs>
				<path d="M8.5 595.28 L101.9 595.28 A8.50394 8.50394 -180 0 0 110.4 586.77 L110.4 581.38 A8.50394 8.50394 -180 0 0
							 101.9 572.88 L8.5 572.88 A8.50394 8.50394 -180 0 0 0 581.38 L0 586.77 A8.50394 8.50394 -180 0 0 8.5
							 595.28 Z" class="st6"/>
			</g>
		</g>
		<g id="shape155-281" v:mID="155" v:groupContext="shape" v:layerMember="0" transform="translate(323.865,-456.103)">
			<title>Dynamic connector.155</title>
			<desc>Editovat</desc>
			<v:textBlock v:margins="rect(4,4,4,4)" v:tabSpace="42.5197"/>
			<v:textRect cx="-26.2269" cy="595" width="40" height="17.6036"/>
			<path d="M-5.68 595.28 L-6.04 595.28 L-46.49 595.28 L-46.49 726.95 L-57.59 726.95" class="st17"/>
			<rect v:rectContext="textBkgnd" x="-39.7112" y="590.201" width="26.9684" height="9.59985" class="st3"/>
			<text x="-39.71" y="597.4" class="st4" v:langID="1029"><v:paragraph v:horizAlign="1"/><v:tabList/>Editovat</text>		</g>
		<g id="shape156-288" v:mID="156" v:groupContext="shape" v:layerMember="0" transform="translate(434.268,-456.103)">
			<title>Dynamic connector.156</title>
			<path d="M0 595.28 L24.52 595.28 L24.52 726.95 L46.83 726.95" class="st1"/>
		</g>
		<g id="group159-293" transform="translate(134.646,-473.548)" v:mID="159" v:groupContext="group">
			<v:userDefs>
				<v:ud v:nameU="visVersion" v:prompt="" v:val="VT0(15):26"/>
			</v:userDefs>
			<title>State.159</title>
			<g id="shape159-294" v:mID="159" v:groupContext="groupContent">
				<rect x="0" y="536.072" width="77.6505" height="59.2038" rx="8.50394" ry="8.50394" class="st10"/>
			</g>
			<g id="shape160-296" v:mID="160" v:groupContext="shape" transform="translate(0,-22.4)">
				<title>Sheet.160</title>
				<desc>Žádost o dozásobení</desc>
				<v:userDefs>
					<v:ud v:nameU="UmlRole" v:prompt="" v:val="VT4(Title)"/>
				</v:userDefs>
				<v:textBlock v:margins="rect(4,4,4,4)" v:tabSpace="42.5197"/>
				<v:textRect cx="38.8252" cy="576.874" width="77.66" height="36.8038"/>
				<path d="M8.5 595.28 L69.15 595.28 A8.50394 8.50394 -180 0 0 77.65 586.77 L77.65 566.98 A8.50394 8.50394 -180 0 0
							 69.15 558.47 L8.5 558.47 A8.50394 8.50394 -180 0 0 -0 566.98 L0 586.77 A8.50394 8.50394 -180 0 0 8.5
							 595.28 Z" class="st11"/>
				<text x="17.49" y="573.27" class="st9" v:langID="1029"><v:paragraph v:horizAlign="1"/><v:tabList/>Žádost o <tspan
							x="10.48" dy="1.2em" class="st14">dozásobení</tspan></text>			</g>
			<g id="shape161-300" v:mID="161" v:groupContext="shape">
				<title>Sheet.161</title>
				<v:userDefs>
					<v:ud v:nameU="UmlRole" v:prompt="" v:val="VT4(Body)"/>
				</v:userDefs>
				<path d="M8.5 595.28 L69.15 595.28 A8.50394 8.50394 -180 0 0 77.65 586.77 L77.65 581.38 A8.50394 8.50394 -180 0 0
							 69.15 572.88 L8.5 572.88 A8.50394 8.50394 -180 0 0 -0 581.38 L0 586.77 A8.50394 8.50394 -180 0 0 8.5
							 595.28 Z" class="st6"/>
			</g>
		</g>
		<g id="shape162-302" v:mID="162" v:groupContext="shape" v:layerMember="0" transform="translate(311.632,-552.682)">
			<title>Dynamic connector.162</title>
			<path d="M0 595.28 L-138.16 595.28 L-138.16 609.17" class="st1"/>
		</g>
		<g id="shape163-307" v:mID="163" v:groupContext="shape" v:layerMember="0" transform="translate(173.471,-473.548)">
			<title>Dynamic connector.163</title>
			<path d="M0 595.28 L0 608.19 L49.2 608.19 L49.2 524.61 L131.56 524.61" class="st1"/>
		</g>
	</g>
</svg>
