<?xml version="1.0" encoding="UTF-8" standalone="no"?>
<!DOCTYPE svg PUBLIC "-//W3C//DTD SVG 1.1//EN" "http://www.w3.org/Graphics/SVG/1.1/DTD/svg11.dtd">
<!-- Generated by Microsoft Visio, SVG Export Usecase3.svg Page-3 -->
<svg xmlns="http://www.w3.org/2000/svg" xmlns:xlink="http://www.w3.org/1999/xlink" xmlns:ev="http://www.w3.org/2001/xml-events"
		xmlns:v="http://schemas.microsoft.com/visio/2003/SVGExtensions/" width="11.6929in" height="8.26772in"
		viewBox="0 0 841.89 595.276" xml:space="preserve" color-interpolation-filters="sRGB" class="st18">
	<v:documentProperties v:langID="1033" v:metric="true" v:viewMarkup="false">
		<v:userDefs>
			<v:ud v:nameU="msvSubprocessMaster" v:prompt="" v:val="VT4(Rectangle)"/>
			<v:ud v:nameU="msvNoAutoConnect" v:val="VT0(1):26"/>
		</v:userDefs>
	</v:documentProperties>

	<style type="text/css">
	<![CDATA[
		.st1 {visibility:visible}
		.st2 {fill:#5b9bd5;fill-opacity:0.25;filter:url(#filter_2);stroke:#5b9bd5;stroke-opacity:0.25}
		.st3 {fill:#4f87bb;stroke:#40709c;stroke-width:0.75}
		.st4 {fill:#40709c;font-family:Calibri;font-size:1.00001em}
		.st5 {fill:#5b9bd5;fill-opacity:0.22;filter:url(#filter_2);stroke:#5b9bd5;stroke-opacity:0.22}
		.st6 {fill:#5b9bd5;stroke:#c7c8c8;stroke-width:0.25}
		.st7 {fill:#feffff;font-family:Calibri;font-size:1.00001em}
		.st8 {stroke:#5b9bd5;stroke-linecap:round;stroke-linejoin:round;stroke-width:1}
		.st9 {marker-end:url(#mrkr14-69);stroke:#5b9bd5;stroke-linecap:round;stroke-linejoin:round;stroke-width:1}
		.st10 {fill:#5b9bd5;fill-opacity:1;stroke:#5b9bd5;stroke-opacity:1;stroke-width:0.28409090909091}
		.st11 {marker-end:url(#mrkr14-75);stroke:#759fcc;stroke-linecap:round;stroke-linejoin:round;stroke-width:1}
		.st12 {fill:#759fcc;fill-opacity:1;stroke:#759fcc;stroke-opacity:1;stroke-width:0.28409090909091}
		.st13 {marker-end:url(#mrkr1-92);stroke:#5b9bd5;stroke-dasharray:7,5;stroke-linecap:round;stroke-linejoin:round;stroke-width:1}
		.st14 {fill:#ffffff;stroke:none;stroke-linecap:butt}
		.st15 {fill:#4f87bb;font-family:Calibri;font-size:0.666664em}
		.st16 {fill:#ffffff;stroke:none;stroke-linecap:butt;stroke-width:7.2}
		.st17 {font-size:1em}
		.st18 {fill:none;fill-rule:evenodd;font-size:12px;overflow:visible;stroke-linecap:square;stroke-miterlimit:3}
	]]>
	</style>

	<defs id="Markers">
		<g id="lend14">
			<path d="M 3 -1 L 0 0 L 3 1 L 3 -1 " style="stroke-linecap:round;stroke-linejoin:round;fill:none"/>
		</g>
		<marker id="mrkr14-69" class="st10" v:arrowType="14" v:arrowSize="2" v:setback="10.56" refX="-10.56" orient="auto"
				markerUnits="strokeWidth" overflow="visible">
			<use xlink:href="#lend14" transform="scale(-3.52,-3.52) "/>
		</marker>
		<marker id="mrkr14-75" class="st12" v:arrowType="14" v:arrowSize="2" v:setback="10.56" refX="-10.56" orient="auto"
				markerUnits="strokeWidth" overflow="visible">
			<use xlink:href="#lend14" transform="scale(-3.52,-3.52) "/>
		</marker>
		<g id="lend1">
			<path d="M 1 -1 L 0 0 L 1 1 " style="stroke-linecap:round;stroke-linejoin:round;fill:none"/>
		</g>
		<marker id="mrkr1-92" class="st10" v:arrowType="1" v:arrowSize="2" orient="auto" markerUnits="strokeWidth"
				overflow="visible">
			<use xlink:href="#lend1" transform="scale(-3.52,-3.52) "/>
		</marker>
	</defs>
	<defs id="Filters">
		<filter id="filter_2">
			<feGaussianBlur stdDeviation="2"/>
		</filter>
	</defs>
	<g v:mID="5" v:index="3" v:groupContext="foregroundPage">
		<v:userDefs>
			<v:ud v:nameU="msvThemeOrder" v:val="VT0(0):26"/>
		</v:userDefs>
		<title>Page-3</title>
		<v:pageProperties v:drawingScale="0.0393701" v:pageScale="0.0393701" v:drawingUnits="24" v:shadowOffsetX="8.50394"
				v:shadowOffsetY="-8.50394"/>
		<v:layer v:name="Connector" v:index="0"/>
		<g id="shape16-1" v:mID="16" v:groupContext="shape" transform="translate(315.542,-459.78)">
			<title>Actor</title>
			<desc>Personál</desc>
			<v:userDefs>
				<v:ud v:nameU="visVersion" v:prompt="" v:val="VT0(15):26"/>
			</v:userDefs>
			<v:textBlock v:margins="rect(4,4,4,4)" v:tabSpace="42.5197"/>
			<v:textRect cx="17.0079" cy="606.477" width="52.9" height="22.4037"/>
			<g id="shadow16-2" v:groupContext="shadow" v:shadowOffsetX="0.345598" v:shadowOffsetY="-1.97279" v:shadowType="1"
					transform="matrix(1,0,0,1,0.345598,1.97279)" class="st1">
				<path d="M6.8 595.28 L6.8 559.84 L6.8 574.02 L0 574.02 L0 545.67 L3.4 542.13 L30.61 542.13 L34.02 545.67 L34.02 574.02
							 L27.21 574.02 L27.21 559.84 L27.21 595.28 L17.01 595.28 L17.01 566.93 L17.01 595.28 L6.8 595.28 ZM24.09
							 531.5 A7.08661 7.08661 -180 1 0 9.92 531.5 A7.08661 7.08661 -180 1 0 24.09 531.5 Z" class="st2"/>
			</g>
			<path d="M6.8 595.28 L6.8 559.84 L6.8 574.02 L0 574.02 L0 545.67 L3.4 542.13 L30.61 542.13 L34.02 545.67 L34.02 574.02
						 L27.21 574.02 L27.21 559.84 L27.21 595.28 L17.01 595.28 L17.01 566.93 L17.01 595.28 L6.8 595.28 ZM24.09
						 531.5 A7.08661 7.08661 -180 1 0 9.92 531.5 A7.08661 7.08661 -180 1 0 24.09 531.5 Z" class="st3"/>
			<text x="-4.08" y="610.08" class="st4" v:langID="1029"><v:paragraph v:horizAlign="1"/><v:tabList/>Personál</text>		</g>
		<g id="shape17-7" v:mID="17" v:groupContext="shape" transform="translate(315.542,-312.378)">
			<title>Actor.17</title>
			<desc>Obslužný personál</desc>
			<v:userDefs>
				<v:ud v:nameU="visVersion" v:prompt="" v:val="VT0(15):26"/>
			</v:userDefs>
			<v:textBlock v:margins="rect(4,4,4,4)" v:tabSpace="42.5197"/>
			<v:textRect cx="17.0079" cy="606.477" width="100.2" height="22.4037"/>
			<g id="shadow17-8" v:groupContext="shadow" v:shadowOffsetX="0.345598" v:shadowOffsetY="-1.97279" v:shadowType="1"
					transform="matrix(1,0,0,1,0.345598,1.97279)" class="st1">
				<path d="M6.8 595.28 L6.8 559.84 L6.8 574.02 L0 574.02 L0 545.67 L3.4 542.13 L30.61 542.13 L34.02 545.67 L34.02 574.02
							 L27.21 574.02 L27.21 559.84 L27.21 595.28 L17.01 595.28 L17.01 566.93 L17.01 595.28 L6.8 595.28 ZM24.09
							 531.5 A7.08661 7.08661 -180 1 0 9.92 531.5 A7.08661 7.08661 -180 1 0 24.09 531.5 Z" class="st2"/>
			</g>
			<path d="M6.8 595.28 L6.8 559.84 L6.8 574.02 L0 574.02 L0 545.67 L3.4 542.13 L30.61 542.13 L34.02 545.67 L34.02 574.02
						 L27.21 574.02 L27.21 559.84 L27.21 595.28 L17.01 595.28 L17.01 566.93 L17.01 595.28 L6.8 595.28 ZM24.09
						 531.5 A7.08661 7.08661 -180 1 0 9.92 531.5 A7.08661 7.08661 -180 1 0 24.09 531.5 Z" class="st3"/>
			<text x="-27.73" y="610.08" class="st4" v:langID="1029"><v:paragraph v:horizAlign="1"/><v:tabList/>Obslužný personál</text>		</g>
		<g id="shape18-13" v:mID="18" v:groupContext="shape" transform="translate(97.3701,-312.378)">
			<title>Actor.18</title>
			<desc>Kuchařský personál</desc>
			<v:userDefs>
				<v:ud v:nameU="visVersion" v:prompt="" v:val="VT0(15):26"/>
			</v:userDefs>
			<v:textBlock v:margins="rect(4,4,4,4)" v:tabSpace="42.5197"/>
			<v:textRect cx="17.0079" cy="606.477" width="105.15" height="22.4037"/>
			<g id="shadow18-14" v:groupContext="shadow" v:shadowOffsetX="0.345598" v:shadowOffsetY="-1.97279" v:shadowType="1"
					transform="matrix(1,0,0,1,0.345598,1.97279)" class="st1">
				<path d="M6.8 595.28 L6.8 559.84 L6.8 574.02 L0 574.02 L0 545.67 L3.4 542.13 L30.61 542.13 L34.02 545.67 L34.02 574.02
							 L27.21 574.02 L27.21 559.84 L27.21 595.28 L17.01 595.28 L17.01 566.93 L17.01 595.28 L6.8 595.28 ZM24.09
							 531.5 A7.08661 7.08661 -180 1 0 9.92 531.5 A7.08661 7.08661 -180 1 0 24.09 531.5 Z" class="st2"/>
			</g>
			<path d="M6.8 595.28 L6.8 559.84 L6.8 574.02 L0 574.02 L0 545.67 L3.4 542.13 L30.61 542.13 L34.02 545.67 L34.02 574.02
						 L27.21 574.02 L27.21 559.84 L27.21 595.28 L17.01 595.28 L17.01 566.93 L17.01 595.28 L6.8 595.28 ZM24.09
						 531.5 A7.08661 7.08661 -180 1 0 9.92 531.5 A7.08661 7.08661 -180 1 0 24.09 531.5 Z" class="st3"/>
			<text x="-30.21" y="610.08" class="st4" v:langID="1029"><v:paragraph v:horizAlign="1"/><v:tabList/>Kuchařský personál</text>		</g>
		<g id="shape19-19" v:mID="19" v:groupContext="shape" transform="translate(511.859,-312.378)">
			<title>Actor.19</title>
			<desc>Kancelář</desc>
			<v:userDefs>
				<v:ud v:nameU="visVersion" v:prompt="" v:val="VT0(15):26"/>
			</v:userDefs>
			<v:textBlock v:margins="rect(4,4,4,4)" v:tabSpace="42.5197"/>
			<v:textRect cx="17.0079" cy="606.477" width="52.74" height="22.4037"/>
			<g id="shadow19-20" v:groupContext="shadow" v:shadowOffsetX="0.345598" v:shadowOffsetY="-1.97279" v:shadowType="1"
					transform="matrix(1,0,0,1,0.345598,1.97279)" class="st1">
				<path d="M6.8 595.28 L6.8 559.84 L6.8 574.02 L0 574.02 L0 545.67 L3.4 542.13 L30.61 542.13 L34.02 545.67 L34.02 574.02
							 L27.21 574.02 L27.21 559.84 L27.21 595.28 L17.01 595.28 L17.01 566.93 L17.01 595.28 L6.8 595.28 ZM24.09
							 531.5 A7.08661 7.08661 -180 1 0 9.92 531.5 A7.08661 7.08661 -180 1 0 24.09 531.5 Z" class="st2"/>
			</g>
			<path d="M6.8 595.28 L6.8 559.84 L6.8 574.02 L0 574.02 L0 545.67 L3.4 542.13 L30.61 542.13 L34.02 545.67 L34.02 574.02
						 L27.21 574.02 L27.21 559.84 L27.21 595.28 L17.01 595.28 L17.01 566.93 L17.01 595.28 L6.8 595.28 ZM24.09
						 531.5 A7.08661 7.08661 -180 1 0 9.92 531.5 A7.08661 7.08661 -180 1 0 24.09 531.5 Z" class="st3"/>
			<text x="-4" y="610.08" class="st4" v:langID="1029"><v:paragraph v:horizAlign="1"/><v:tabList/>Kancelář</text>		</g>
		<g id="shape20-25" v:mID="20" v:groupContext="shape" transform="translate(315.52,-78.5197)">
			<title>Actor.20</title>
			<desc>Vedení</desc>
			<v:userDefs>
				<v:ud v:nameU="visVersion" v:prompt="" v:val="VT0(15):26"/>
			</v:userDefs>
			<v:textBlock v:margins="rect(4,4,4,4)" v:tabSpace="42.5197"/>
			<v:textRect cx="17.0079" cy="606.477" width="44.84" height="22.4037"/>
			<g id="shadow20-26" v:groupContext="shadow" v:shadowOffsetX="0.345598" v:shadowOffsetY="-1.97279" v:shadowType="1"
					transform="matrix(1,0,0,1,0.345598,1.97279)" class="st1">
				<path d="M6.8 595.28 L6.8 559.84 L6.8 574.02 L0 574.02 L0 545.67 L3.4 542.13 L30.61 542.13 L34.02 545.67 L34.02 574.02
							 L27.21 574.02 L27.21 559.84 L27.21 595.28 L17.01 595.28 L17.01 566.93 L17.01 595.28 L6.8 595.28 ZM24.09
							 531.5 A7.08661 7.08661 -180 1 0 9.92 531.5 A7.08661 7.08661 -180 1 0 24.09 531.5 Z" class="st2"/>
			</g>
			<path d="M6.8 595.28 L6.8 559.84 L6.8 574.02 L0 574.02 L0 545.67 L3.4 542.13 L30.61 542.13 L34.02 545.67 L34.02 574.02
						 L27.21 574.02 L27.21 559.84 L27.21 595.28 L17.01 595.28 L17.01 566.93 L17.01 595.28 L6.8 595.28 ZM24.09
						 531.5 A7.08661 7.08661 -180 1 0 9.92 531.5 A7.08661 7.08661 -180 1 0 24.09 531.5 Z" class="st3"/>
			<text x="-0.05" y="610.08" class="st4" v:langID="1029"><v:paragraph v:horizAlign="1"/><v:tabList/>Vedení</text>		</g>
		<g id="shape21-31" v:mID="21" v:groupContext="shape" transform="translate(453.543,-78.5197)">
			<title>Actor.21</title>
			<desc>Zákazník</desc>
			<v:userDefs>
				<v:ud v:nameU="visVersion" v:prompt="" v:val="VT0(15):26"/>
			</v:userDefs>
			<v:textBlock v:margins="rect(4,4,4,4)" v:tabSpace="42.5197"/>
			<v:textRect cx="17.0079" cy="606.477" width="52.55" height="22.4037"/>
			<g id="shadow21-32" v:groupContext="shadow" v:shadowOffsetX="0.345598" v:shadowOffsetY="-1.97279" v:shadowType="1"
					transform="matrix(1,0,0,1,0.345598,1.97279)" class="st1">
				<path d="M6.8 595.28 L6.8 559.84 L6.8 574.02 L0 574.02 L0 545.67 L3.4 542.13 L30.61 542.13 L34.02 545.67 L34.02 574.02
							 L27.21 574.02 L27.21 559.84 L27.21 595.28 L17.01 595.28 L17.01 566.93 L17.01 595.28 L6.8 595.28 ZM24.09
							 531.5 A7.08661 7.08661 -180 1 0 9.92 531.5 A7.08661 7.08661 -180 1 0 24.09 531.5 Z" class="st2"/>
			</g>
			<path d="M6.8 595.28 L6.8 559.84 L6.8 574.02 L0 574.02 L0 545.67 L3.4 542.13 L30.61 542.13 L34.02 545.67 L34.02 574.02
						 L27.21 574.02 L27.21 559.84 L27.21 595.28 L17.01 595.28 L17.01 566.93 L17.01 595.28 L6.8 595.28 ZM24.09
						 531.5 A7.08661 7.08661 -180 1 0 9.92 531.5 A7.08661 7.08661 -180 1 0 24.09 531.5 Z" class="st3"/>
			<text x="-3.9" y="610.08" class="st4" v:langID="1029"><v:paragraph v:horizAlign="1"/><v:tabList/>Zákazník</text>		</g>
		<g id="shape22-37" v:mID="22" v:groupContext="shape" transform="translate(496.063,-149.386)">
			<title>Use Case</title>
			<desc>Vytvořit rezervaci</desc>
			<v:userDefs>
				<v:ud v:nameU="visVersion" v:prompt="" v:val="VT0(15):26"/>
			</v:userDefs>
			<v:textBlock v:margins="rect(4,4,4,4)" v:tabSpace="42.5197"/>
			<v:textRect cx="56.6929" cy="578.268" width="113.39" height="34.0157"/>
			<g id="shadow22-38" v:groupContext="shadow" v:shadowOffsetX="0.345598" v:shadowOffsetY="-1.97279" v:shadowType="1"
					transform="matrix(1,0,0,1,0.345598,1.97279)" class="st1">
				<ellipse cx="56.6929" cy="578.268" rx="56.6929" ry="17.0079" class="st5"/>
			</g>
			<ellipse cx="56.6929" cy="578.268" rx="56.6929" ry="17.0079" class="st6"/>
			<text x="13.83" y="581.87" class="st7" v:langID="1029"><v:paragraph v:horizAlign="1"/><v:tabList/>Vytvořit rezervaci</text>		</g>
		<g id="shape23-43" v:mID="23" v:groupContext="shape" transform="translate(497.053,-96.9449)">
			<title>Use Case.23</title>
			<desc>Stornovat rezervaci</desc>
			<v:userDefs>
				<v:ud v:nameU="visVersion" v:prompt="" v:val="VT0(15):26"/>
			</v:userDefs>
			<v:textBlock v:margins="rect(4,4,4,4)" v:tabSpace="42.5197"/>
			<v:textRect cx="56.6929" cy="578.268" width="113.39" height="34.0157"/>
			<g id="shadow23-44" v:groupContext="shadow" v:shadowOffsetX="0.345598" v:shadowOffsetY="-1.97279" v:shadowType="1"
					transform="matrix(1,0,0,1,0.345598,1.97279)" class="st1">
				<ellipse cx="56.6929" cy="578.268" rx="56.6929" ry="17.0079" class="st5"/>
			</g>
			<ellipse cx="56.6929" cy="578.268" rx="56.6929" ry="17.0079" class="st6"/>
			<text x="9.38" y="581.87" class="st7" v:langID="1029"><v:paragraph v:horizAlign="1"/><v:tabList/>Stornovat rezervaci</text>		</g>
		<g id="shape24-49" v:mID="24" v:groupContext="shape" transform="translate(495.073,-44.5039)">
			<title>Use Case.24</title>
			<desc>Poslat zpětnou vazbu</desc>
			<v:userDefs>
				<v:ud v:nameU="visVersion" v:prompt="" v:val="VT0(15):26"/>
			</v:userDefs>
			<v:textBlock v:margins="rect(4,4,4,4)" v:tabSpace="42.5197"/>
			<v:textRect cx="57.1877" cy="578.268" width="114.38" height="34.0157"/>
			<g id="shadow24-50" v:groupContext="shadow" v:shadowOffsetX="0.345598" v:shadowOffsetY="-1.97279" v:shadowType="1"
					transform="matrix(1,0,0,1,0.345598,1.97279)" class="st1">
				<ellipse cx="57.1877" cy="578.268" rx="57.1877" ry="17.0079" class="st5"/>
			</g>
			<ellipse cx="57.1877" cy="578.268" rx="57.1877" ry="17.0079" class="st6"/>
			<text x="5.36" y="581.87" class="st7" v:langID="1029"><v:paragraph v:horizAlign="1"/><v:tabList/>Poslat zpětnou vazbu</text>		</g>
		<g id="shape25-55" v:mID="25" v:groupContext="shape" v:layerMember="0" transform="translate(487.559,-124.803)">
			<title>Association</title>
			<v:userDefs>
				<v:ud v:nameU="visVersion" v:prompt="" v:val="VT0(15):26"/>
			</v:userDefs>
			<path d="M0 595.28 L41.07 569.08" class="st8"/>
		</g>
		<g id="shape27-58" v:mID="27" v:groupContext="shape" v:layerMember="0" transform="translate(485.219,-106.866)">
			<title>Association.27</title>
			<v:userDefs>
				<v:ud v:nameU="visVersion" v:prompt="" v:val="VT0(15):26"/>
			</v:userDefs>
			<path d="M2.34 588.19 L11.83 588.19" class="st8"/>
		</g>
		<g id="shape28-61" v:mID="28" v:groupContext="shape" v:layerMember="0" transform="translate(487.559,-103.037)">
			<title>Association.28</title>
			<v:userDefs>
				<v:ud v:nameU="visVersion" v:prompt="" v:val="VT0(15):26"/>
			</v:userDefs>
			<path d="M0 595.28 L40.66 621.37" class="st8"/>
		</g>
		<g id="shape29-64" v:mID="29" v:groupContext="shape" v:layerMember="0" transform="translate(325.463,-383.244)">
			<title>Generalization</title>
			<v:userDefs>
				<v:ud v:nameU="visVersion" v:prompt="" v:val="VT0(15):26"/>
			</v:userDefs>
			<path d="M7.09 595.28 L7.09 529.3" class="st9"/>
		</g>
		<g id="shape30-70" v:mID="30" v:groupContext="shape" v:layerMember="0" transform="translate(131.386,-358.846)">
			<title>Generalization.30</title>
			<v:userDefs>
				<v:ud v:nameU="visVersion" v:prompt="" v:val="VT0(15):26"/>
			</v:userDefs>
			<path d="M0 595.28 L175.43 475.89" class="st11"/>
		</g>
		<g id="shape31-76" v:mID="31" v:groupContext="shape" v:layerMember="0" transform="translate(511.859,-360.581)">
			<title>Generalization.31</title>
			<v:userDefs>
				<v:ud v:nameU="visVersion" v:prompt="" v:val="VT0(15):26"/>
			</v:userDefs>
			<path d="M0 595.28 L-153.86 479.75" class="st9"/>
		</g>
		<g id="shape33-81" v:mID="33" v:groupContext="shape" transform="translate(680.481,-96.9449)">
			<title>Use Case.33</title>
			<desc>Zadat rezervační klíč</desc>
			<v:userDefs>
				<v:ud v:nameU="visVersion" v:prompt="" v:val="VT0(15):26"/>
			</v:userDefs>
			<v:textBlock v:margins="rect(4,4,4,4)" v:tabSpace="42.5197"/>
			<v:textRect cx="56.6929" cy="578.268" width="113.39" height="34.0157"/>
			<g id="shadow33-82" v:groupContext="shadow" v:shadowOffsetX="0.345598" v:shadowOffsetY="-1.97279" v:shadowType="1"
					transform="matrix(1,0,0,1,0.345598,1.97279)" class="st1">
				<ellipse cx="56.6929" cy="578.268" rx="56.6929" ry="17.0079" class="st5"/>
			</g>
			<ellipse cx="56.6929" cy="578.268" rx="56.6929" ry="17.0079" class="st6"/>
			<text x="7.07" y="581.87" class="st7" v:langID="1029"><v:paragraph v:horizAlign="1"/><v:tabList/>Zadat rezervační klíč</text>		</g>
		<g id="shape34-87" v:mID="34" v:groupContext="shape" v:layerMember="0" transform="translate(610.438,-106.866)">
			<title>Include</title>
			<desc>&#60;&#60;include&#62;&#62;</desc>
			<v:userDefs>
				<v:ud v:nameU="visVersion" v:prompt="" v:val="VT0(15):26"/>
			</v:userDefs>
			<v:textBlock v:margins="rect(4,4,4,4)" v:tabSpace="42.5197"/>
			<v:textRect cx="35.0212" cy="588.189" width="49.4" height="17.6036"/>
			<path d="M0 588.19 L70.04 588.19" class="st13"/>
			<rect v:rectContext="textBkgnd" x="15.2304" y="583.389" width="39.5818" height="9.59985" class="st14"/>
			<text x="15.23" y="590.59" class="st15" v:langID="1033"><v:paragraph v:horizAlign="1"/><v:tabList/>&#60;&#60;include&#62;&#62;</text>		</g>
		<g id="shape35-95" v:mID="35" v:groupContext="shape" transform="translate(554.379,-370.488)">
			<title>Use Case.35</title>
			<desc>Potvdit rezervaci</desc>
			<v:userDefs>
				<v:ud v:nameU="visVersion" v:prompt="" v:val="VT0(15):26"/>
			</v:userDefs>
			<v:textBlock v:margins="rect(4,4,4,4)" v:tabSpace="42.5197"/>
			<v:textRect cx="56.6929" cy="578.268" width="113.39" height="34.0157"/>
			<g id="shadow35-96" v:groupContext="shadow" v:shadowOffsetX="0.345598" v:shadowOffsetY="-1.97279" v:shadowType="1"
					transform="matrix(1,0,0,1,0.345598,1.97279)" class="st1">
				<ellipse cx="56.6929" cy="578.268" rx="56.6929" ry="17.0079" class="st5"/>
			</g>
			<ellipse cx="56.6929" cy="578.268" rx="56.6929" ry="17.0079" class="st6"/>
			<text x="15.79" y="581.87" class="st7" v:langID="1029"><v:paragraph v:horizAlign="1"/><v:tabList/>Potvdit rezervaci</text>		</g>
		<g id="shape36-101" v:mID="36" v:groupContext="shape" transform="translate(710.504,-370.488)">
			<title>Use Case.36</title>
			<desc>Zaslat rezervační klíč</desc>
			<v:userDefs>
				<v:ud v:nameU="visVersion" v:prompt="" v:val="VT0(15):26"/>
			</v:userDefs>
			<v:textBlock v:margins="rect(4,4,4,4)" v:tabSpace="42.5197"/>
			<v:textRect cx="56.6929" cy="578.268" width="113.39" height="34.0157"/>
			<g id="shadow36-102" v:groupContext="shadow" v:shadowOffsetX="0.345598" v:shadowOffsetY="-1.97279" v:shadowType="1"
					transform="matrix(1,0,0,1,0.345598,1.97279)" class="st1">
				<ellipse cx="56.6929" cy="578.268" rx="56.6929" ry="17.0079" class="st5"/>
			</g>
			<ellipse cx="56.6929" cy="578.268" rx="56.6929" ry="17.0079" class="st6"/>
			<text x="6.5" y="581.87" class="st7" v:langID="1029"><v:paragraph v:horizAlign="1"/><v:tabList/>Zaslat rezervační klíč</text>		</g>
		<g id="shape37-107" v:mID="37" v:groupContext="shape" v:layerMember="0" transform="translate(667.765,-380.409)">
			<title>Include.37</title>
			<desc>&#60;&#60;include&#62;&#62;</desc>
			<v:userDefs>
				<v:ud v:nameU="visVersion" v:prompt="" v:val="VT0(15):26"/>
			</v:userDefs>
			<v:textBlock v:margins="rect(4,4,4,4)" v:tabSpace="42.5197"/>
			<v:textRect cx="21.3695" cy="588.189" width="49.4" height="17.6036"/>
			<path d="M0 588.19 L42.74 588.19" class="st13"/>
			<rect v:rectContext="textBkgnd" x="1.5787" y="583.389" width="39.5818" height="9.59985" class="st14"/>
			<text x="1.58" y="590.59" class="st15" v:langID="1033"><v:paragraph v:horizAlign="1"/><v:tabList/>&#60;&#60;include&#62;&#62;</text>		</g>
		<g id="shape38-114" v:mID="38" v:groupContext="shape" v:layerMember="0" transform="translate(545.875,-356.022)">
			<title>Association.38</title>
			<v:userDefs>
				<v:ud v:nameU="visVersion" v:prompt="" v:val="VT0(15):26"/>
			</v:userDefs>
			<path d="M0 595.28 L35.27 578.25" class="st8"/>
		</g>
		<g id="shape41-117" v:mID="41" v:groupContext="shape" transform="translate(554.379,-330.803)">
			<title>Use Case.41</title>
			<desc>Zamítnout rezervaci</desc>
			<v:userDefs>
				<v:ud v:nameU="visVersion" v:prompt="" v:val="VT0(15):26"/>
			</v:userDefs>
			<v:textBlock v:margins="rect(4,4,4,4)" v:tabSpace="42.5197"/>
			<v:textRect cx="56.6929" cy="578.268" width="113.39" height="34.0157"/>
			<g id="shadow41-118" v:groupContext="shadow" v:shadowOffsetX="0.345598" v:shadowOffsetY="-1.97279" v:shadowType="1"
					transform="matrix(1,0,0,1,0.345598,1.97279)" class="st1">
				<ellipse cx="56.6929" cy="578.268" rx="56.6929" ry="17.0079" class="st5"/>
			</g>
			<ellipse cx="56.6929" cy="578.268" rx="56.6929" ry="17.0079" class="st6"/>
			<text x="7.97" y="581.87" class="st7" v:langID="1029"><v:paragraph v:horizAlign="1"/><v:tabList/>Zamítnout rezervaci</text>		</g>
		<g id="shape42-123" v:mID="42" v:groupContext="shape" transform="translate(554.379,-291.118)">
			<title>Use Case.42</title>
			<desc>Zrušit rezervaci</desc>
			<v:userDefs>
				<v:ud v:nameU="visVersion" v:prompt="" v:val="VT0(15):26"/>
			</v:userDefs>
			<v:textBlock v:margins="rect(4,4,4,4)" v:tabSpace="42.5197"/>
			<v:textRect cx="56.6929" cy="578.268" width="113.39" height="34.0157"/>
			<g id="shadow42-124" v:groupContext="shadow" v:shadowOffsetX="0.345598" v:shadowOffsetY="-1.97279" v:shadowType="1"
					transform="matrix(1,0,0,1,0.345598,1.97279)" class="st1">
				<ellipse cx="56.6929" cy="578.268" rx="56.6929" ry="17.0079" class="st5"/>
			</g>
			<ellipse cx="56.6929" cy="578.268" rx="56.6929" ry="17.0079" class="st6"/>
			<text x="19.53" y="581.87" class="st7" v:langID="1029"><v:paragraph v:horizAlign="1"/><v:tabList/>Zrušit rezervaci</text>		</g>
		<g id="shape43-129" v:mID="43" v:groupContext="shape" transform="translate(680.481,-152.22)">
			<title>Use Case.43</title>
			<desc>Zobrazení plánu restaurace</desc>
			<v:userDefs>
				<v:ud v:nameU="visVersion" v:prompt="" v:val="VT0(15):26"/>
			</v:userDefs>
			<v:textBlock v:margins="rect(4,4,4,4)" v:tabSpace="42.5197"/>
			<v:textRect cx="71.7045" cy="578.268" width="143.41" height="34.0157"/>
			<g id="shadow43-130" v:groupContext="shadow" v:shadowOffsetX="0.345598" v:shadowOffsetY="-1.97279" v:shadowType="1"
					transform="matrix(1,0,0,1,0.345598,1.97279)" class="st1">
				<ellipse cx="71.7045" cy="578.268" rx="71.7045" ry="17.0079" class="st5"/>
			</g>
			<ellipse cx="71.7045" cy="578.268" rx="71.7045" ry="17.0079" class="st6"/>
			<text x="5.36" y="581.87" class="st7" v:langID="1029"><v:paragraph v:horizAlign="1"/><v:tabList/>Zobrazení plánu restaurace</text>		</g>
		<g id="shape45-135" v:mID="45" v:groupContext="shape" v:layerMember="0" transform="translate(609.385,-160.618)">
			<title>Include.45</title>
			<desc>&#60;&#60;include&#62;&#62;</desc>
			<v:userDefs>
				<v:ud v:nameU="visVersion" v:prompt="" v:val="VT0(15):26"/>
			</v:userDefs>
			<v:textBlock v:margins="rect(4,4,4,4)" v:tabSpace="42.5197"/>
			<v:textRect cx="35.6119" cy="588.189" width="49.4" height="17.6036"/>
			<path d="M0 588.7 L71.22 587.68" class="st13"/>
			<rect v:rectContext="textBkgnd" x="15.8211" y="583.389" width="39.5818" height="9.59985" class="st16"/>
			<text x="15.82" y="590.59" class="st15" v:langID="1033"><v:paragraph v:horizAlign="1"/><v:tabList/>&#60;&#60;include&#62;&#62;</text>		</g>
		<g id="shape46-142" v:mID="46" v:groupContext="shape" v:layerMember="0" transform="translate(543.041,-340.724)">
			<title>Association.46</title>
			<v:userDefs>
				<v:ud v:nameU="visVersion" v:prompt="" v:val="VT0(15):26"/>
			</v:userDefs>
			<path d="M2.83 588.19 L11.34 588.19" class="st8"/>
		</g>
		<g id="shape47-145" v:mID="47" v:groupContext="shape" v:layerMember="0" transform="translate(545.875,-339.6)">
			<title>Association.47</title>
			<v:userDefs>
				<v:ud v:nameU="visVersion" v:prompt="" v:val="VT0(15):26"/>
			</v:userDefs>
			<path d="M0 595.28 L35.27 612.3" class="st8"/>
		</g>
		<g id="shape49-148" v:mID="49" v:groupContext="shape" v:layerMember="0" transform="translate(346.811,-130.965)">
			<title>Generalization.49</title>
			<v:userDefs>
				<v:ud v:nameU="visVersion" v:prompt="" v:val="VT0(15):26"/>
			</v:userDefs>
			<path d="M0 595.28 L163.37 400.69" class="st9"/>
		</g>
		<g id="shape50-153" v:mID="50" v:groupContext="shape" v:layerMember="0" transform="translate(325.452,-149.386)">
			<title>Generalization.50</title>
			<v:userDefs>
				<v:ud v:nameU="visVersion" v:prompt="" v:val="VT0(15):26"/>
			</v:userDefs>
			<path d="M7.08 595.28 L7.09 442.84" class="st9"/>
		</g>
		<g id="shape51-158" v:mID="51" v:groupContext="shape" transform="translate(170.079,-288.124)">
			<title>Use Case.51</title>
			<desc>Zadat objednávku</desc>
			<v:userDefs>
				<v:ud v:nameU="visVersion" v:prompt="" v:val="VT0(15):26"/>
			</v:userDefs>
			<v:textBlock v:margins="rect(4,4,4,4)" v:tabSpace="42.5197"/>
			<v:textRect cx="56.6929" cy="578.268" width="113.39" height="34.0157"/>
			<g id="shadow51-159" v:groupContext="shadow" v:shadowOffsetX="0.345598" v:shadowOffsetY="-1.97279" v:shadowType="1"
					transform="matrix(1,0,0,1,0.345598,1.97279)" class="st1">
				<ellipse cx="56.6929" cy="578.268" rx="56.6929" ry="17.0079" class="st5"/>
			</g>
			<ellipse cx="56.6929" cy="578.268" rx="56.6929" ry="17.0079" class="st6"/>
			<text x="13.11" y="581.87" class="st7" v:langID="1029"><v:paragraph v:horizAlign="1"/><v:tabList/>Zadat objednávku</text>		</g>
		<g id="shape52-164" v:mID="52" v:groupContext="shape" transform="translate(170.079,-347.811)">
			<title>Use Case.52</title>
			<desc>Vybrat stůl</desc>
			<v:userDefs>
				<v:ud v:nameU="visVersion" v:prompt="" v:val="VT0(15):26"/>
			</v:userDefs>
			<v:textBlock v:margins="rect(4,4,4,4)" v:tabSpace="42.5197"/>
			<v:textRect cx="56.6929" cy="578.268" width="113.39" height="34.0157"/>
			<g id="shadow52-165" v:groupContext="shadow" v:shadowOffsetX="0.345598" v:shadowOffsetY="-1.97279" v:shadowType="1"
					transform="matrix(1,0,0,1,0.345598,1.97279)" class="st1">
				<ellipse cx="56.6929" cy="578.268" rx="56.6929" ry="17.0079" class="st5"/>
			</g>
			<ellipse cx="56.6929" cy="578.268" rx="56.6929" ry="17.0079" class="st6"/>
			<text x="30.2" y="581.87" class="st7" v:langID="1029"><v:paragraph v:horizAlign="1"/><v:tabList/>Vybrat stůl</text>		</g>
		<g id="shape53-170" v:mID="53" v:groupContext="shape" v:layerMember="0" transform="translate(219.685,-322.14)">
			<title>Include.53</title>
			<desc>&#60;&#60;include&#62;&#62;</desc>
			<v:userDefs>
				<v:ud v:nameU="visVersion" v:prompt="" v:val="VT0(15):26"/>
			</v:userDefs>
			<v:textBlock v:margins="rect(4,4,4,4)" v:tabSpace="42.5197"/>
			<v:textRect cx="7.08661" cy="582.44" width="49.4" height="17.6036"/>
			<path d="M7.09 595.28 L7.09 569.6" class="st13"/>
			<rect v:rectContext="textBkgnd" x="-12.7042" y="577.64" width="39.5818" height="9.59985" class="st16"/>
			<text x="-12.7" y="584.84" class="st15" v:langID="1033"><v:paragraph v:horizAlign="1"/><v:tabList/>&#60;&#60;include&#62;&#62;</text>		</g>
		<g id="shape54-177" v:mID="54" v:groupContext="shape" v:layerMember="0" transform="translate(254.665,-319.939)">
			<title>Association.54</title>
			<v:userDefs>
				<v:ud v:nameU="visVersion" v:prompt="" v:val="VT0(15):26"/>
			</v:userDefs>
			<path d="M0 595.28 L62.2 562.26" class="st8"/>
		</g>
		<g id="shape57-180" v:mID="57" v:groupContext="shape" transform="translate(170.079,-248.598)">
			<title>Use Case.57</title>
			<desc>Zabrat stůl</desc>
			<v:userDefs>
				<v:ud v:nameU="visVersion" v:prompt="" v:val="VT0(15):26"/>
			</v:userDefs>
			<v:textBlock v:margins="rect(4,4,4,4)" v:tabSpace="42.5197"/>
			<v:textRect cx="56.6929" cy="578.268" width="113.39" height="34.0157"/>
			<g id="shadow57-181" v:groupContext="shadow" v:shadowOffsetX="0.345598" v:shadowOffsetY="-1.97279" v:shadowType="1"
					transform="matrix(1,0,0,1,0.345598,1.97279)" class="st1">
				<ellipse cx="56.6929" cy="578.268" rx="56.6929" ry="17.0079" class="st5"/>
			</g>
			<ellipse cx="56.6929" cy="578.268" rx="56.6929" ry="17.0079" class="st6"/>
			<text x="30.64" y="581.87" class="st7" v:langID="1029"><v:paragraph v:horizAlign="1"/><v:tabList/>Zabrat stůl</text>		</g>
		<g id="shape58-186" v:mID="58" v:groupContext="shape" transform="translate(172.717,-206.079)">
			<title>Use Case.58</title>
			<desc>Uvolnit stůl</desc>
			<v:userDefs>
				<v:ud v:nameU="visVersion" v:prompt="" v:val="VT0(15):26"/>
			</v:userDefs>
			<v:textBlock v:margins="rect(4,4,4,4)" v:tabSpace="42.5197"/>
			<v:textRect cx="56.6929" cy="578.268" width="113.39" height="34.0157"/>
			<g id="shadow58-187" v:groupContext="shadow" v:shadowOffsetX="0.345598" v:shadowOffsetY="-1.97279" v:shadowType="1"
					transform="matrix(1,0,0,1,0.345598,1.97279)" class="st1">
				<ellipse cx="56.6929" cy="578.268" rx="56.6929" ry="17.0079" class="st5"/>
			</g>
			<ellipse cx="56.6929" cy="578.268" rx="56.6929" ry="17.0079" class="st6"/>
			<text x="28.81" y="581.87" class="st7" v:langID="1029"><v:paragraph v:horizAlign="1"/><v:tabList/>Uvolnit stůl</text>		</g>
		<g id="shape59-192" v:mID="59" v:groupContext="shape" transform="translate(374.016,-330.803)">
			<title>Use Case.59</title>
			<desc>Editovat rezervaci</desc>
			<v:userDefs>
				<v:ud v:nameU="visVersion" v:prompt="" v:val="VT0(15):26"/>
			</v:userDefs>
			<v:textBlock v:margins="rect(4,4,4,4)" v:tabSpace="42.5197"/>
			<v:textRect cx="56.6929" cy="578.268" width="113.39" height="34.0157"/>
			<g id="shadow59-193" v:groupContext="shadow" v:shadowOffsetX="0.345598" v:shadowOffsetY="-1.97279" v:shadowType="1"
					transform="matrix(1,0,0,1,0.345598,1.97279)" class="st1">
				<ellipse cx="56.6929" cy="578.268" rx="56.6929" ry="17.0079" class="st5"/>
			</g>
			<ellipse cx="56.6929" cy="578.268" rx="56.6929" ry="17.0079" class="st6"/>
			<text x="13.09" y="581.87" class="st7" v:langID="1029"><v:paragraph v:horizAlign="1"/><v:tabList/>Editovat rezervaci</text>		</g>
		<g id="shape60-198" v:mID="60" v:groupContext="shape" transform="translate(311.16,-541.984)">
			<title>Use Case.60</title>
			<desc>Změna stavu objednávky</desc>
			<v:userDefs>
				<v:ud v:nameU="visVersion" v:prompt="" v:val="VT0(15):26"/>
			</v:userDefs>
			<v:textBlock v:margins="rect(4,4,4,4)" v:tabSpace="42.5197"/>
			<v:textRect cx="65.8477" cy="578.268" width="131.7" height="34.0157"/>
			<g id="shadow60-199" v:groupContext="shadow" v:shadowOffsetX="0.345598" v:shadowOffsetY="-1.97279" v:shadowType="1"
					transform="matrix(1,0,0,1,0.345598,1.97279)" class="st1">
				<ellipse cx="65.8477" cy="578.268" rx="65.8477" ry="17.0079" class="st5"/>
			</g>
			<ellipse cx="65.8477" cy="578.268" rx="65.8477" ry="17.0079" class="st6"/>
			<text x="5.36" y="581.87" class="st7" v:langID="1029"><v:paragraph v:horizAlign="1"/><v:tabList/>Změna stavu objednávky</text>		</g>
		<g id="shape62-204" v:mID="62" v:groupContext="shape" transform="translate(61.7114,-451.843)">
			<title>Use Case.62</title>
			<desc>Žádost o dozásobení</desc>
			<v:userDefs>
				<v:ud v:nameU="visVersion" v:prompt="" v:val="VT0(15):26"/>
			</v:userDefs>
			<v:textBlock v:margins="rect(4,4,4,4)" v:tabSpace="42.5197"/>
			<v:textRect cx="56.6929" cy="578.268" width="113.39" height="34.0157"/>
			<g id="shadow62-205" v:groupContext="shadow" v:shadowOffsetX="0.345598" v:shadowOffsetY="-1.97279" v:shadowType="1"
					transform="matrix(1,0,0,1,0.345598,1.97279)" class="st1">
				<ellipse cx="56.6929" cy="578.268" rx="56.6929" ry="17.0079" class="st5"/>
			</g>
			<ellipse cx="56.6929" cy="578.268" rx="56.6929" ry="17.0079" class="st6"/>
			<text x="6.72" y="581.87" class="st7" v:langID="1029"><v:paragraph v:horizAlign="1"/><v:tabList/>Žádost o dozásobení</text>		</g>
		<g id="shape63-210" v:mID="63" v:groupContext="shape" v:layerMember="0" transform="translate(315.542,-334.594)">
			<title>Association.63</title>
			<v:userDefs>
				<v:ud v:nameU="visVersion" v:prompt="" v:val="VT0(15):26"/>
			</v:userDefs>
			<path d="M0 595.28 L-68.35 648.4" class="st8"/>
		</g>
		<g id="shape69-213" v:mID="69" v:groupContext="shape" v:layerMember="0" transform="translate(247.188,-281.473)">
			<title>Association.69</title>
			<v:userDefs>
				<v:ud v:nameU="visVersion" v:prompt="" v:val="VT0(15):26"/>
			</v:userDefs>
			<path d="M0 595.28 L68.35 542.16" class="st8"/>
		</g>
		<g id="shape72-216" v:mID="72" v:groupContext="shape" v:layerMember="0" transform="translate(374.016,-340.724)">
			<title>Association.72</title>
			<v:userDefs>
				<v:ud v:nameU="visVersion" v:prompt="" v:val="VT0(15):26"/>
			</v:userDefs>
			<path d="M0 588.19 L-24.46 588.19" class="st8"/>
		</g>
		<g id="shape73-219" v:mID="73" v:groupContext="shape" v:layerMember="0" transform="translate(243.06,-239.594)">
			<title>Association.73</title>
			<v:userDefs>
				<v:ud v:nameU="visVersion" v:prompt="" v:val="VT0(15):26"/>
			</v:userDefs>
			<path d="M0 595.28 L77.77 501.23" class="st8"/>
		</g>
		<g id="shape76-222" v:mID="76" v:groupContext="shape" transform="translate(57.685,-411.591)">
			<title>Use Case.76</title>
			<desc>Editovat Menu</desc>
			<v:userDefs>
				<v:ud v:nameU="visVersion" v:prompt="" v:val="VT0(15):26"/>
			</v:userDefs>
			<v:textBlock v:margins="rect(4,4,4,4)" v:tabSpace="42.5197"/>
			<v:textRect cx="56.6929" cy="578.268" width="113.39" height="34.0157"/>
			<g id="shadow76-223" v:groupContext="shadow" v:shadowOffsetX="0.345598" v:shadowOffsetY="-1.97279" v:shadowType="1"
					transform="matrix(1,0,0,1,0.345598,1.97279)" class="st1">
				<ellipse cx="56.6929" cy="578.268" rx="56.6929" ry="17.0079" class="st5"/>
			</g>
			<ellipse cx="56.6929" cy="578.268" rx="56.6929" ry="17.0079" class="st6"/>
			<text x="20.69" y="581.87" class="st7" v:langID="1029"><v:paragraph v:horizAlign="1"/><v:tabList/>Editovat Menu</text>		</g>
		<g id="shape78-228" v:mID="78" v:groupContext="shape" v:layerMember="0" transform="translate(487.402,-340.724)">
			<title>Association.78</title>
			<v:userDefs>
				<v:ud v:nameU="visVersion" v:prompt="" v:val="VT0(15):26"/>
			</v:userDefs>
			<path d="M0 588.19 L24.46 588.19" class="st8"/>
		</g>
		<g id="shape82-231" v:mID="82" v:groupContext="shape" v:layerMember="0" transform="translate(365.34,-542.253)">
			<title>Dynamic connector</title>
			<path d="M0 595.28 L-20.44 624.6" class="st8"/>
		</g>
		<g id="group94-234" transform="translate(107.534,-91.3858)" v:mID="94" v:groupContext="group">
			<title>Sheet.94</title>
			<g id="shape48-235" v:mID="48" v:groupContext="shape" v:layerMember="0" transform="translate(14.1732,-7.08661)">
				<title>Generalization.48</title>
				<v:userDefs>
					<v:ud v:nameU="visVersion" v:prompt="" v:val="VT0(15):26"/>
				</v:userDefs>
				<path d="M-6.9 595.28 L-7.25 391.93" class="st9"/>
			</g>
			<g id="shape92-240" v:mID="92" v:groupContext="shape" v:layerMember="0" transform="translate(7.20854,0)">
				<title>Dynamic connector.92</title>
				<path d="M0 588.19 L207.58 588.19" class="st8"/>
			</g>
		</g>
		<g id="shape95-243" v:mID="95" v:groupContext="shape" transform="translate(425.197,-515.055)">
			<title>Use Case.95</title>
			<desc>Zobrazit rezervace</desc>
			<v:userDefs>
				<v:ud v:nameU="visVersion" v:prompt="" v:val="VT0(15):26"/>
			</v:userDefs>
			<v:textBlock v:margins="rect(4,4,4,4)" v:tabSpace="42.5197"/>
			<v:textRect cx="56.6929" cy="578.268" width="113.39" height="34.0157"/>
			<g id="shadow95-244" v:groupContext="shadow" v:shadowOffsetX="0.345598" v:shadowOffsetY="-1.97279" v:shadowType="1"
					transform="matrix(1,0,0,1,0.345598,1.97279)" class="st1">
				<ellipse cx="56.6929" cy="578.268" rx="56.6929" ry="17.0079" class="st5"/>
			</g>
			<ellipse cx="56.6929" cy="578.268" rx="56.6929" ry="17.0079" class="st6"/>
			<text x="11.86" y="581.87" class="st7" v:langID="1029"><v:paragraph v:horizAlign="1"/><v:tabList/>Zobrazit rezervace</text>		</g>
		<g id="shape96-249" v:mID="96" v:groupContext="shape" transform="translate(425.197,-469.086)">
			<title>Use Case.96</title>
			<desc>Zobrazit aktuální stav restaurace</desc>
			<v:userDefs>
				<v:ud v:nameU="visVersion" v:prompt="" v:val="VT0(15):26"/>
			</v:userDefs>
			<v:textBlock v:margins="rect(4,4,4,4)" v:tabSpace="42.5197"/>
			<v:textRect cx="56.6929" cy="576.874" width="113.39" height="36.8038"/>
			<g id="shadow96-250" v:groupContext="shadow" v:shadowOffsetX="0.345598" v:shadowOffsetY="-1.97279" v:shadowType="1"
					transform="matrix(1,0,0,1,0.345598,1.97279)" class="st1">
				<ellipse cx="56.6929" cy="576.874" rx="56.6929" ry="18.4019" class="st5"/>
			</g>
			<ellipse cx="56.6929" cy="576.874" rx="56.6929" ry="18.4019" class="st6"/>
			<text x="15.94" y="573.27" class="st7" v:langID="1029"><v:paragraph v:horizAlign="1"/><v:tabList/>Zobrazit aktuální<v:newlineChar/><tspan
						x="19.45" dy="1.2em" class="st17">stav restaurace</tspan></text>		</g>
		<g id="shape97-256" v:mID="97" v:groupContext="shape" v:layerMember="0" transform="translate(349.558,-499.409)">
			<title>Association.97</title>
			<v:userDefs>
				<v:ud v:nameU="visVersion" v:prompt="" v:val="VT0(15):26"/>
			</v:userDefs>
			<path d="M0 595.28 L88.55 573.43" class="st8"/>
		</g>
		<g id="shape98-259" v:mID="98" v:groupContext="shape" v:layerMember="0" transform="translate(349.558,-499.445)">
			<title>Association.98</title>
			<v:userDefs>
				<v:ud v:nameU="visVersion" v:prompt="" v:val="VT0(15):26"/>
			</v:userDefs>
			<path d="M0 600.39 L76.35 604.34" class="st8"/>
		</g>
		<g id="shape99-262" v:mID="99" v:groupContext="shape" transform="translate(189.921,-532.063)">
			<title>Use Case.99</title>
			<desc>Zobrazit objednávku</desc>
			<v:userDefs>
				<v:ud v:nameU="visVersion" v:prompt="" v:val="VT0(15):26"/>
			</v:userDefs>
			<v:textBlock v:margins="rect(4,4,4,4)" v:tabSpace="42.5197"/>
			<v:textRect cx="56.6929" cy="578.268" width="113.39" height="34.0157"/>
			<g id="shadow99-263" v:groupContext="shadow" v:shadowOffsetX="0.345598" v:shadowOffsetY="-1.97279" v:shadowType="1"
					transform="matrix(1,0,0,1,0.345598,1.97279)" class="st1">
				<ellipse cx="56.6929" cy="578.268" rx="56.6929" ry="17.0079" class="st5"/>
			</g>
			<ellipse cx="56.6929" cy="578.268" rx="56.6929" ry="17.0079" class="st6"/>
			<text x="6.98" y="581.87" class="st7" v:langID="1029"><v:paragraph v:horizAlign="1"/><v:tabList/>Zobrazit objednávku</text>		</g>
		<g id="shape100-268" v:mID="100" v:groupContext="shape" v:layerMember="0" transform="translate(315.542,-505.872)">
			<title>Association.100</title>
			<v:userDefs>
				<v:ud v:nameU="visVersion" v:prompt="" v:val="VT0(15):26"/>
			</v:userDefs>
			<path d="M0 595.28 L-44.45 567.42" class="st8"/>
		</g>
		<g id="shape103-271" v:mID="103" v:groupContext="shape" v:layerMember="0" transform="translate(35.4331,-347.811)">
			<title>Dynamic connector.103</title>
			<path d="M0 595.28 L0 474.24 L26.28 474.24" class="st8"/>
		</g>
		<g id="shape104-274" v:mID="104" v:groupContext="shape" v:layerMember="0" transform="translate(35.4331,-354.898)">
			<title>Association.104</title>
			<v:userDefs>
				<v:ud v:nameU="visVersion" v:prompt="" v:val="VT0(15):26"/>
			</v:userDefs>
			<path d="M0 602.36 L61.94 602.36" class="st8"/>
		</g>
		<g id="shape105-277" v:mID="105" v:groupContext="shape" v:layerMember="0" transform="translate(35.4331,-435.685)">
			<title>Association.105</title>
			<v:userDefs>
				<v:ud v:nameU="visVersion" v:prompt="" v:val="VT0(15):26"/>
			</v:userDefs>
			<path d="M0 602.36 L22.25 602.36" class="st8"/>
		</g>
		<g id="shape106-280" v:mID="106" v:groupContext="shape" transform="translate(181.417,-489.543)">
			<title>Use Case.106</title>
			<desc>Zobrazit stůl</desc>
			<v:userDefs>
				<v:ud v:nameU="visVersion" v:prompt="" v:val="VT0(15):26"/>
			</v:userDefs>
			<v:textBlock v:margins="rect(4,4,4,4)" v:tabSpace="42.5197"/>
			<v:textRect cx="56.6929" cy="578.268" width="113.39" height="34.0157"/>
			<g id="shadow106-281" v:groupContext="shadow" v:shadowOffsetX="0.345598" v:shadowOffsetY="-1.97279" v:shadowType="1"
					transform="matrix(1,0,0,1,0.345598,1.97279)" class="st1">
				<ellipse cx="56.6929" cy="578.268" rx="56.6929" ry="17.0079" class="st5"/>
			</g>
			<ellipse cx="56.6929" cy="578.268" rx="56.6929" ry="17.0079" class="st6"/>
			<text x="26.6" y="581.87" class="st7" v:langID="1029"><v:paragraph v:horizAlign="1"/><v:tabList/>Zobrazit stůl</text>		</g>
		<g id="shape107-286" v:mID="107" v:groupContext="shape" v:layerMember="0" transform="translate(290.745,-505.83)">
			<title>Association.107</title>
			<v:userDefs>
				<v:ud v:nameU="visVersion" v:prompt="" v:val="VT0(15):26"/>
			</v:userDefs>
			<path d="M0 600.87 L24.8 603.85" class="st8"/>
		</g>
		<g id="shape108-289" v:mID="108" v:groupContext="shape" transform="translate(215.433,-384.661)">
			<title>Use Case.108</title>
			<desc>Zaplatit stůl</desc>
			<v:userDefs>
				<v:ud v:nameU="visVersion" v:prompt="" v:val="VT0(15):26"/>
			</v:userDefs>
			<v:textBlock v:margins="rect(4,4,4,4)" v:tabSpace="42.5197"/>
			<v:textRect cx="50.0545" cy="578.268" width="100.11" height="34.0157"/>
			<g id="shadow108-290" v:groupContext="shadow" v:shadowOffsetX="0.345598" v:shadowOffsetY="-1.97279" v:shadowType="1"
					transform="matrix(1,0,0,1,0.345598,1.97279)" class="st1">
				<ellipse cx="50.0545" cy="578.268" rx="50.0545" ry="17.0079" class="st5"/>
			</g>
			<ellipse cx="50.0545" cy="578.268" rx="50.0545" ry="17.0079" class="st6"/>
			<text x="21.33" y="581.87" class="st7" v:langID="1029"><v:paragraph v:horizAlign="1"/><v:tabList/>Zaplatit stůl</text>		</g>
		<g id="shape110-295" v:mID="110" v:groupContext="shape" v:layerMember="0" transform="translate(284.991,-386.006)">
			<title>Association.110</title>
			<v:userDefs>
				<v:ud v:nameU="visVersion" v:prompt="" v:val="VT0(15):26"/>
			</v:userDefs>
			<path d="M0 595.28 L30.55 619.81" class="st8"/>
		</g>
	</g>
</svg>
